<svg width="24" height="24" viewBox="0 0 24 24" fill="none" xmlns="http://www.w3.org/2000/svg">
<path d="M12.0088 17.2769C11.5869 17.2769 11.2002 17.104 10.8486 16.7583L4.34473 10.105C4.21582 9.97021 4.11621 9.82373 4.0459 9.66553C3.98145 9.50146 3.94922 9.32568 3.94922 9.13818C3.94922 8.87451 4.01074 8.63721 4.13379 8.42627C4.2627 8.20947 4.43262 8.03955 4.64355 7.9165C4.85449 7.7876 5.08887 7.72314 5.34668 7.72314C5.73926 7.72314 6.08496 7.87256 6.38379 8.17139L12.3691 14.3325H11.6572L17.625 8.17139C17.9238 7.87256 18.2666 7.72314 18.6533 7.72314C18.9111 7.72314 19.1455 7.7876 19.3564 7.9165C19.5674 8.03955 19.7344 8.20947 19.8574 8.42627C19.9863 8.63721 20.0508 8.87451 20.0508 9.13818C20.0508 9.51904 19.9189 9.84131 19.6553 10.105L13.1602 16.7583C12.9844 16.9341 12.8027 17.063 12.6152 17.145C12.4277 17.2271 12.2256 17.271 12.0088 17.2769Z" fill="black"/>
</svg>
