<svg width="48" height="48" viewBox="0 0 48 48" fill="none" xmlns="http://www.w3.org/2000/svg">
<path d="M23.9956 20.2427C23.5913 20.2427 23.2485 20.105 22.9673 19.8296C22.6919 19.5483 22.5542 19.2085 22.5542 18.8101C22.5542 18.4058 22.6919 18.0659 22.9673 17.7905C23.2485 17.5093 23.5913 17.3687 23.9956 17.3687C24.3999 17.3687 24.7427 17.5093 25.0239 17.7905C25.3052 18.0659 25.4458 18.4058 25.4458 18.8101C25.4458 19.2085 25.3052 19.5483 25.0239 19.8296C24.7427 20.105 24.3999 20.2427 23.9956 20.2427ZM23.9956 30.6313C23.5913 30.6313 23.2485 30.4937 22.9673 30.2183C22.6919 29.937 22.5542 29.5942 22.5542 29.1899C22.5542 28.7856 22.6919 28.4458 22.9673 28.1704C23.2485 27.8892 23.5913 27.7485 23.9956 27.7485C24.3999 27.7485 24.7427 27.8892 25.0239 28.1704C25.3052 28.4458 25.4458 28.7856 25.4458 29.1899C25.4458 29.5942 25.3052 29.937 25.0239 30.2183C24.7427 30.4937 24.3999 30.6313 23.9956 30.6313ZM17.6235 24.9448C17.4536 24.9448 17.2954 24.9009 17.1489 24.813C17.0024 24.7192 16.8823 24.5991 16.7886 24.4526C16.6948 24.3003 16.6479 24.1333 16.6479 23.9517C16.6479 23.7759 16.6948 23.6118 16.7886 23.4595C16.8823 23.3071 17.0024 23.187 17.1489 23.0991C17.2954 23.0112 17.4536 22.9673 17.6235 22.9673H30.3765C30.5464 22.9673 30.7046 23.0112 30.8511 23.0991C31.0034 23.187 31.1235 23.3071 31.2114 23.4595C31.3052 23.6118 31.3521 23.7759 31.3521 23.9517C31.3521 24.1333 31.3052 24.3003 31.2114 24.4526C31.1235 24.5991 31.0034 24.7192 30.8511 24.813C30.7046 24.9009 30.5464 24.9448 30.3765 24.9448H17.6235Z" fill="black"/>
</svg>
