<svg width="32" height="32" viewBox="0 0 32 32" fill="none" xmlns="http://www.w3.org/2000/svg">
<path d="M15.9956 12.2427C15.5913 12.2427 15.2485 12.105 14.9673 11.8296C14.6919 11.5483 14.5542 11.2085 14.5542 10.8101C14.5542 10.4058 14.6919 10.0659 14.9673 9.79053C15.2485 9.50928 15.5913 9.36865 15.9956 9.36865C16.3999 9.36865 16.7427 9.50928 17.0239 9.79053C17.3052 10.0659 17.4458 10.4058 17.4458 10.8101C17.4458 11.2085 17.3052 11.5483 17.0239 11.8296C16.7427 12.105 16.3999 12.2427 15.9956 12.2427ZM15.9956 22.6313C15.5913 22.6313 15.2485 22.4937 14.9673 22.2183C14.6919 21.937 14.5542 21.5942 14.5542 21.1899C14.5542 20.7856 14.6919 20.4458 14.9673 20.1704C15.2485 19.8892 15.5913 19.7485 15.9956 19.7485C16.3999 19.7485 16.7427 19.8892 17.0239 20.1704C17.3052 20.4458 17.4458 20.7856 17.4458 21.1899C17.4458 21.5942 17.3052 21.937 17.0239 22.2183C16.7427 22.4937 16.3999 22.6313 15.9956 22.6313ZM9.62354 16.9448C9.45361 16.9448 9.29541 16.9009 9.14893 16.813C9.00244 16.7192 8.88232 16.5991 8.78857 16.4526C8.69482 16.3003 8.64795 16.1333 8.64795 15.9517C8.64795 15.7759 8.69482 15.6118 8.78857 15.4595C8.88232 15.3071 9.00244 15.187 9.14893 15.0991C9.29541 15.0112 9.45361 14.9673 9.62354 14.9673H22.3765C22.5464 14.9673 22.7046 15.0112 22.8511 15.0991C23.0034 15.187 23.1235 15.3071 23.2114 15.4595C23.3052 15.6118 23.3521 15.7759 23.3521 15.9517C23.3521 16.1333 23.3052 16.3003 23.2114 16.4526C23.1235 16.5991 23.0034 16.7192 22.8511 16.813C22.7046 16.9009 22.5464 16.9448 22.3765 16.9448H9.62354Z" fill="black"/>
</svg>
