<svg width="32" height="32" viewBox="0 0 32 32" fill="none" xmlns="http://www.w3.org/2000/svg">
<path d="M10.7002 14.106C10.5303 14.106 10.3721 14.062 10.2256 13.9741C10.0791 13.8804 9.95898 13.7603 9.86523 13.6138C9.77148 13.4673 9.72461 13.3032 9.72461 13.1216C9.72461 12.9458 9.77148 12.7817 9.86523 12.6294C9.95898 12.4771 10.0791 12.3569 10.2256 12.269C10.3721 12.1812 10.5303 12.1372 10.7002 12.1372H21.2998C21.4756 12.1372 21.6367 12.1812 21.7832 12.269C21.9297 12.3569 22.0469 12.4771 22.1348 12.6294C22.2285 12.7817 22.2754 12.9458 22.2754 13.1216C22.2754 13.3032 22.2285 13.4673 22.1348 13.6138C22.0469 13.7603 21.9297 13.8804 21.7832 13.9741C21.6367 14.062 21.4756 14.106 21.2998 14.106H10.7002ZM10.7002 19.8628C10.5303 19.8628 10.3721 19.8188 10.2256 19.731C10.0791 19.6431 9.95898 19.5229 9.86523 19.3706C9.77148 19.2183 9.72461 19.0542 9.72461 18.8784C9.72461 18.6968 9.77148 18.5327 9.86523 18.3862C9.95898 18.2397 10.0791 18.1196 10.2256 18.0259C10.3721 17.9321 10.5303 17.8853 10.7002 17.8853H21.2998C21.4756 17.8853 21.6367 17.9321 21.7832 18.0259C21.9297 18.1196 22.0469 18.2397 22.1348 18.3862C22.2285 18.5327 22.2754 18.6968 22.2754 18.8784C22.2754 19.0542 22.2285 19.2183 22.1348 19.3706C22.0469 19.5229 21.9297 19.6431 21.7832 19.731C21.6367 19.8188 21.4756 19.8628 21.2998 19.8628H10.7002Z" fill="black"/>
</svg>
