<svg width="48" height="48" viewBox="0 0 48 48" fill="none" xmlns="http://www.w3.org/2000/svg">
<path d="M18.7002 22.106C18.5303 22.106 18.3721 22.062 18.2256 21.9741C18.0791 21.8804 17.959 21.7603 17.8652 21.6138C17.7715 21.4673 17.7246 21.3032 17.7246 21.1216C17.7246 20.9458 17.7715 20.7817 17.8652 20.6294C17.959 20.4771 18.0791 20.3569 18.2256 20.269C18.3721 20.1812 18.5303 20.1372 18.7002 20.1372H29.2998C29.4756 20.1372 29.6367 20.1812 29.7832 20.269C29.9297 20.3569 30.0469 20.4771 30.1348 20.6294C30.2285 20.7817 30.2754 20.9458 30.2754 21.1216C30.2754 21.3032 30.2285 21.4673 30.1348 21.6138C30.0469 21.7603 29.9297 21.8804 29.7832 21.9741C29.6367 22.062 29.4756 22.106 29.2998 22.106H18.7002ZM18.7002 27.8628C18.5303 27.8628 18.3721 27.8188 18.2256 27.731C18.0791 27.6431 17.959 27.5229 17.8652 27.3706C17.7715 27.2183 17.7246 27.0542 17.7246 26.8784C17.7246 26.6968 17.7715 26.5327 17.8652 26.3862C17.959 26.2397 18.0791 26.1196 18.2256 26.0259C18.3721 25.9321 18.5303 25.8853 18.7002 25.8853H29.2998C29.4756 25.8853 29.6367 25.9321 29.7832 26.0259C29.9297 26.1196 30.0469 26.2397 30.1348 26.3862C30.2285 26.5327 30.2754 26.6968 30.2754 26.8784C30.2754 27.0542 30.2285 27.2183 30.1348 27.3706C30.0469 27.5229 29.9297 27.6431 29.7832 27.731C29.6367 27.8188 29.4756 27.8628 29.2998 27.8628H18.7002Z" fill="black"/>
</svg>
