<svg width="32" height="32" viewBox="0 0 32 32" fill="none" xmlns="http://www.w3.org/2000/svg">
<path d="M8.55127 23.1455C8.02393 23.1455 7.61084 22.7676 7.61084 22.293C7.61084 22.0645 7.68115 21.8623 7.84814 21.625L11.3813 16.6504V16.5889L7.94482 11.7988C7.75146 11.5439 7.68994 11.3418 7.68994 11.1045C7.68994 10.5771 8.12939 10.1816 8.70068 10.1816C9.07861 10.1816 9.30713 10.3311 9.58838 10.7441L12.6909 15.2266H12.7612L15.9341 10.6914C16.189 10.3223 16.3823 10.1816 16.7515 10.1816C17.2788 10.1816 17.7183 10.5596 17.7183 11.0254C17.7183 11.2539 17.6479 11.4561 17.481 11.6934L13.8511 16.6592V16.7119L17.3667 21.5811C17.5249 21.792 17.604 22.0117 17.604 22.249C17.604 22.7588 17.1733 23.1455 16.6284 23.1455C16.2593 23.1455 16.0308 23.0049 15.7759 22.6445L12.6118 18.1709H12.5503L9.38623 22.6357C9.11377 23.0225 8.92041 23.1455 8.55127 23.1455Z" fill="black"/>
<path d="M20.2407 15.2705C19.8101 15.2705 19.5815 15.0244 19.5815 14.6641C19.5815 14.4004 19.6782 14.207 19.8892 14.0225L21.814 12.2295C22.605 11.5 22.7632 11.21 22.7632 10.7969C22.7632 10.3223 22.4028 9.9707 21.8755 9.9707C21.3833 9.9707 21.0142 10.2168 20.8647 10.6914C20.7417 11.0518 20.5659 11.1748 20.2407 11.1748C19.8628 11.1748 19.6255 10.9727 19.6255 10.542C19.6255 9.61914 20.5396 8.85449 21.8755 8.85449C23.2642 8.85449 24.1782 9.62793 24.1782 10.709C24.1782 11.4912 23.7827 11.9482 22.7456 12.9238L21.4888 14.1104V14.1455H23.853C24.1782 14.1455 24.3892 14.3828 24.3892 14.708C24.3892 15.0332 24.1782 15.2705 23.853 15.2705H20.2407Z" fill="black"/>
</svg>
