<svg width="32" height="32" viewBox="0 0 32 32" fill="none" xmlns="http://www.w3.org/2000/svg">
<path d="M4.85986 22.5654C4.40869 22.5654 4.06885 22.4951 3.84033 22.3545C3.61768 22.2197 3.50635 22.0117 3.50635 21.7305C3.50635 21.5312 3.56494 21.3672 3.68213 21.2383C3.80518 21.1094 3.98389 21.0303 4.21826 21.001C4.26514 20.9951 4.31494 20.9893 4.36768 20.9834C4.42627 20.9775 4.48779 20.9746 4.55225 20.9746C4.99756 20.9746 5.32275 20.8662 5.52783 20.6494C5.73877 20.4268 5.8999 20.043 6.01123 19.498L6.93408 15.1387H6.0376C5.80322 15.1387 5.61572 15.0742 5.4751 14.9453C5.34033 14.8164 5.27295 14.6377 5.27295 14.4092C5.27295 14.1572 5.35498 13.9609 5.51904 13.8203C5.68896 13.6738 5.91162 13.6006 6.18701 13.6006H7.25928L7.54053 12.2295C7.74561 11.251 8.09131 10.542 8.57764 10.1025C9.06396 9.65723 9.75537 9.43457 10.6519 9.43457C11.1265 9.43457 11.481 9.50195 11.7153 9.63672C11.9497 9.77148 12.0669 9.98535 12.0669 10.2783C12.0669 10.7002 11.8296 10.9375 11.355 10.9902C11.2964 11.002 11.2349 11.0107 11.1704 11.0166C11.106 11.0166 11.0356 11.0166 10.9595 11.0166C10.5024 11.0166 10.1714 11.1309 9.96631 11.3594C9.76123 11.5879 9.60303 11.9658 9.4917 12.4932L9.26318 13.6006H10.6694C10.8979 13.6006 11.0796 13.665 11.2144 13.7939C11.355 13.9229 11.4253 14.1016 11.4253 14.3301C11.4253 14.582 11.3403 14.7812 11.1704 14.9277C11.0063 15.0684 10.7866 15.1387 10.5112 15.1387H8.93799L7.97119 19.7705C7.75439 20.79 7.40869 21.5107 6.93408 21.9326C6.46533 22.3545 5.77393 22.5654 4.85986 22.5654ZM15.7847 22.5742C15.5972 22.5742 15.4243 22.5244 15.2661 22.4248C15.1079 22.3311 14.9468 22.1641 14.7827 21.9238C14.144 21.0918 13.6694 20.1777 13.3589 19.1816C13.0483 18.1855 12.8931 17.125 12.8931 16C12.8931 14.8809 13.0483 13.8174 13.3589 12.8096C13.6753 11.8018 14.1499 10.8906 14.7827 10.0762C14.9468 9.83594 15.1079 9.66895 15.2661 9.5752C15.4243 9.47559 15.5972 9.42578 15.7847 9.42578C15.9604 9.42578 16.104 9.47559 16.2153 9.5752C16.3325 9.6748 16.3911 9.80664 16.3911 9.9707C16.3911 10.0469 16.3794 10.1201 16.356 10.1904C16.3384 10.2549 16.3003 10.3457 16.2417 10.4629C15.7261 11.3125 15.3364 12.209 15.0728 13.1523C14.8149 14.0898 14.686 15.042 14.686 16.0088C14.686 17.0049 14.8179 17.9629 15.0815 18.8828C15.3511 19.8027 15.7378 20.6875 16.2417 21.5371C16.3003 21.6602 16.3384 21.7539 16.356 21.8184C16.3794 21.8828 16.3911 21.9531 16.3911 22.0293C16.3911 22.2051 16.3325 22.3398 16.2153 22.4336C16.104 22.5273 15.9604 22.5742 15.7847 22.5742ZM17.9028 20.4033C17.6802 20.4033 17.4927 20.333 17.3403 20.1924C17.188 20.0518 17.1118 19.8789 17.1118 19.6738C17.1118 19.5625 17.1265 19.46 17.1558 19.3662C17.1851 19.2666 17.2378 19.1641 17.314 19.0586L19.5728 15.9736L17.4282 13.0996C17.3579 13.0059 17.3022 12.9092 17.2612 12.8096C17.2202 12.71 17.1997 12.5898 17.1997 12.4492C17.1997 12.2324 17.2817 12.042 17.4458 11.8779C17.6157 11.7139 17.8267 11.6318 18.0786 11.6318C18.2778 11.6318 18.4419 11.6758 18.5708 11.7637C18.6997 11.8457 18.8198 11.9717 18.9312 12.1416L20.7593 14.8311H20.8032L22.6138 12.1504C22.7251 11.9805 22.8394 11.8516 22.9565 11.7637C23.0737 11.6758 23.2261 11.6318 23.4136 11.6318C23.6421 11.6318 23.8354 11.7051 23.9937 11.8516C24.1577 11.9922 24.2397 12.1797 24.2397 12.4141C24.2397 12.625 24.1665 12.8301 24.02 13.0293L21.7964 15.9912L24.0376 19.0322C24.1079 19.126 24.1577 19.2197 24.187 19.3135C24.2163 19.4014 24.231 19.498 24.231 19.6035C24.231 19.832 24.1519 20.0225 23.9937 20.1748C23.8354 20.3271 23.6304 20.4033 23.3784 20.4033C23.2319 20.4033 23.0972 20.3711 22.9741 20.3066C22.8569 20.2422 22.7368 20.1221 22.6138 19.9463L20.6626 17.1689H20.6274L18.7378 19.8936C18.5972 20.0928 18.4653 20.2275 18.3423 20.2979C18.2192 20.3682 18.0728 20.4033 17.9028 20.4033ZM25.6021 22.5742C25.4263 22.5742 25.2798 22.5244 25.1626 22.4248C25.0513 22.3252 24.9956 22.1934 24.9956 22.0293C24.9956 21.9531 25.0044 21.8828 25.022 21.8184C25.0454 21.7539 25.0864 21.6602 25.145 21.5371C25.6489 20.6875 26.0327 19.8027 26.2964 18.8828C26.5659 17.9629 26.7007 17.0049 26.7007 16.0088C26.7007 15.042 26.5688 14.0898 26.3052 13.1523C26.0474 12.209 25.6606 11.3125 25.145 10.4629C25.0864 10.3457 25.0454 10.2549 25.022 10.1904C25.0044 10.1201 24.9956 10.0469 24.9956 9.9707C24.9956 9.80664 25.0513 9.6748 25.1626 9.5752C25.2798 9.47559 25.4263 9.42578 25.6021 9.42578C25.7896 9.42578 25.9624 9.47559 26.1206 9.5752C26.2788 9.66895 26.4399 9.83594 26.604 10.0762C27.231 10.8906 27.7026 11.8018 28.019 12.8096C28.3354 13.8174 28.4937 14.8809 28.4937 16C28.4937 17.125 28.3384 18.1855 28.0278 19.1816C27.7173 20.1777 27.2427 21.0918 26.604 21.9238C26.4399 22.1641 26.2788 22.3311 26.1206 22.4248C25.9624 22.5244 25.7896 22.5742 25.6021 22.5742Z" fill="black"/>
</svg>
