<svg width="32" height="32" viewBox="0 0 32 32" fill="none" xmlns="http://www.w3.org/2000/svg">
<path d="M12.5283 23.6597C12.1416 23.6597 11.7783 23.6274 11.4385 23.563C11.0986 23.5044 10.8232 23.3989 10.6123 23.2466C10.4014 23.1001 10.2959 22.895 10.2959 22.6313C10.2959 22.3735 10.3721 22.1743 10.5244 22.0337C10.6768 21.8872 10.873 21.814 11.1133 21.814C11.3008 21.814 11.4971 21.8345 11.7021 21.8755C11.9072 21.9106 12.2207 21.9282 12.6426 21.9282C13.1992 21.9282 13.6357 21.7642 13.9521 21.436C14.2744 21.1021 14.4883 20.5513 14.5938 19.7837L15.6836 11.9175C15.8477 10.728 16.2607 9.83447 16.9229 9.23682C17.585 8.63916 18.4375 8.34033 19.4805 8.34033C19.8613 8.34033 20.2217 8.37256 20.5615 8.43701C20.9014 8.49561 21.1768 8.60107 21.3877 8.75342C21.5986 8.8999 21.7041 9.10498 21.7041 9.36865C21.7041 9.62061 21.6279 9.81982 21.4756 9.96631C21.3291 10.1128 21.1357 10.186 20.8955 10.186C20.7139 10.186 20.5176 10.1685 20.3066 10.1333C20.1016 10.0923 19.7881 10.0718 19.3662 10.0718C18.8096 10.0718 18.3701 10.2388 18.0479 10.5728C17.7314 10.9009 17.5205 11.4517 17.415 12.2251L16.3164 20.0825C16.1523 21.272 15.7393 22.1655 15.0771 22.7632C14.415 23.3608 13.5654 23.6597 12.5283 23.6597ZM12.0713 16.2593C11.8135 16.2593 11.5996 16.1802 11.4297 16.022C11.2598 15.8579 11.1748 15.6499 11.1748 15.3979C11.1748 15.146 11.2568 14.938 11.4209 14.7739C11.5908 14.6099 11.8047 14.5278 12.0625 14.5278H20.623C20.8809 14.5278 21.0947 14.6099 21.2646 14.7739C21.4346 14.938 21.5195 15.146 21.5195 15.3979C21.5195 15.6499 21.4346 15.8579 21.2646 16.022C21.1006 16.1802 20.8896 16.2593 20.6318 16.2593H12.0713Z" fill="black"/>
</svg>
