<svg width="48" height="48" viewBox="0 0 48 48" fill="none" xmlns="http://www.w3.org/2000/svg">
<path d="M12.8599 30.5654C12.4087 30.5654 12.0688 30.4951 11.8403 30.3545C11.6177 30.2197 11.5063 30.0117 11.5063 29.7305C11.5063 29.5312 11.5649 29.3672 11.6821 29.2383C11.8052 29.1094 11.9839 29.0303 12.2183 29.001C12.2651 28.9951 12.3149 28.9893 12.3677 28.9834C12.4263 28.9775 12.4878 28.9746 12.5522 28.9746C12.9976 28.9746 13.3228 28.8662 13.5278 28.6494C13.7388 28.4268 13.8999 28.043 14.0112 27.498L14.9341 23.1387H14.0376C13.8032 23.1387 13.6157 23.0742 13.4751 22.9453C13.3403 22.8164 13.2729 22.6377 13.2729 22.4092C13.2729 22.1572 13.355 21.9609 13.519 21.8203C13.689 21.6738 13.9116 21.6006 14.187 21.6006H15.2593L15.5405 20.2295C15.7456 19.251 16.0913 18.542 16.5776 18.1025C17.064 17.6572 17.7554 17.4346 18.6519 17.4346C19.1265 17.4346 19.481 17.502 19.7153 17.6367C19.9497 17.7715 20.0669 17.9854 20.0669 18.2783C20.0669 18.7002 19.8296 18.9375 19.355 18.9902C19.2964 19.002 19.2349 19.0107 19.1704 19.0166C19.106 19.0166 19.0356 19.0166 18.9595 19.0166C18.5024 19.0166 18.1714 19.1309 17.9663 19.3594C17.7612 19.5879 17.603 19.9658 17.4917 20.4932L17.2632 21.6006H18.6694C18.8979 21.6006 19.0796 21.665 19.2144 21.7939C19.355 21.9229 19.4253 22.1016 19.4253 22.3301C19.4253 22.582 19.3403 22.7812 19.1704 22.9277C19.0063 23.0684 18.7866 23.1387 18.5112 23.1387H16.938L15.9712 27.7705C15.7544 28.79 15.4087 29.5107 14.9341 29.9326C14.4653 30.3545 13.7739 30.5654 12.8599 30.5654ZM23.7847 30.5742C23.5972 30.5742 23.4243 30.5244 23.2661 30.4248C23.1079 30.3311 22.9468 30.1641 22.7827 29.9238C22.144 29.0918 21.6694 28.1777 21.3589 27.1816C21.0483 26.1855 20.8931 25.125 20.8931 24C20.8931 22.8809 21.0483 21.8174 21.3589 20.8096C21.6753 19.8018 22.1499 18.8906 22.7827 18.0762C22.9468 17.8359 23.1079 17.6689 23.2661 17.5752C23.4243 17.4756 23.5972 17.4258 23.7847 17.4258C23.9604 17.4258 24.104 17.4756 24.2153 17.5752C24.3325 17.6748 24.3911 17.8066 24.3911 17.9707C24.3911 18.0469 24.3794 18.1201 24.356 18.1904C24.3384 18.2549 24.3003 18.3457 24.2417 18.4629C23.7261 19.3125 23.3364 20.209 23.0728 21.1523C22.8149 22.0898 22.686 23.042 22.686 24.0088C22.686 25.0049 22.8179 25.9629 23.0815 26.8828C23.3511 27.8027 23.7378 28.6875 24.2417 29.5371C24.3003 29.6602 24.3384 29.7539 24.356 29.8184C24.3794 29.8828 24.3911 29.9531 24.3911 30.0293C24.3911 30.2051 24.3325 30.3398 24.2153 30.4336C24.104 30.5273 23.9604 30.5742 23.7847 30.5742ZM25.9028 28.4033C25.6802 28.4033 25.4927 28.333 25.3403 28.1924C25.188 28.0518 25.1118 27.8789 25.1118 27.6738C25.1118 27.5625 25.1265 27.46 25.1558 27.3662C25.1851 27.2666 25.2378 27.1641 25.314 27.0586L27.5728 23.9736L25.4282 21.0996C25.3579 21.0059 25.3022 20.9092 25.2612 20.8096C25.2202 20.71 25.1997 20.5898 25.1997 20.4492C25.1997 20.2324 25.2817 20.042 25.4458 19.8779C25.6157 19.7139 25.8267 19.6318 26.0786 19.6318C26.2778 19.6318 26.4419 19.6758 26.5708 19.7637C26.6997 19.8457 26.8198 19.9717 26.9312 20.1416L28.7593 22.8311H28.8032L30.6138 20.1504C30.7251 19.9805 30.8394 19.8516 30.9565 19.7637C31.0737 19.6758 31.2261 19.6318 31.4136 19.6318C31.6421 19.6318 31.8354 19.7051 31.9937 19.8516C32.1577 19.9922 32.2397 20.1797 32.2397 20.4141C32.2397 20.625 32.1665 20.8301 32.02 21.0293L29.7964 23.9912L32.0376 27.0322C32.1079 27.126 32.1577 27.2197 32.187 27.3135C32.2163 27.4014 32.231 27.498 32.231 27.6035C32.231 27.832 32.1519 28.0225 31.9937 28.1748C31.8354 28.3271 31.6304 28.4033 31.3784 28.4033C31.2319 28.4033 31.0972 28.3711 30.9741 28.3066C30.8569 28.2422 30.7368 28.1221 30.6138 27.9463L28.6626 25.1689H28.6274L26.7378 27.8936C26.5972 28.0928 26.4653 28.2275 26.3423 28.2979C26.2192 28.3682 26.0728 28.4033 25.9028 28.4033ZM33.6021 30.5742C33.4263 30.5742 33.2798 30.5244 33.1626 30.4248C33.0513 30.3252 32.9956 30.1934 32.9956 30.0293C32.9956 29.9531 33.0044 29.8828 33.022 29.8184C33.0454 29.7539 33.0864 29.6602 33.145 29.5371C33.6489 28.6875 34.0327 27.8027 34.2964 26.8828C34.5659 25.9629 34.7007 25.0049 34.7007 24.0088C34.7007 23.042 34.5688 22.0898 34.3052 21.1523C34.0474 20.209 33.6606 19.3125 33.145 18.4629C33.0864 18.3457 33.0454 18.2549 33.022 18.1904C33.0044 18.1201 32.9956 18.0469 32.9956 17.9707C32.9956 17.8066 33.0513 17.6748 33.1626 17.5752C33.2798 17.4756 33.4263 17.4258 33.6021 17.4258C33.7896 17.4258 33.9624 17.4756 34.1206 17.5752C34.2788 17.6689 34.4399 17.8359 34.604 18.0762C35.231 18.8906 35.7026 19.8018 36.019 20.8096C36.3354 21.8174 36.4937 22.8809 36.4937 24C36.4937 25.125 36.3384 26.1855 36.0278 27.1816C35.7173 28.1777 35.2427 29.0918 34.604 29.9238C34.4399 30.1641 34.2788 30.3311 34.1206 30.4248C33.9624 30.5244 33.7896 30.5742 33.6021 30.5742Z" fill="black"/>
</svg>
