<svg width="32" height="32" viewBox="0 0 32 32" fill="none" xmlns="http://www.w3.org/2000/svg">
<path d="M15.1123 25.5361C14.749 25.5361 14.4326 25.4336 14.1631 25.2285C13.8994 25.0234 13.7266 24.7451 13.6445 24.3936L13.2842 22.8379L13.0469 22.7588L11.7021 23.585C11.3975 23.7783 11.0752 23.8516 10.7354 23.8047C10.4014 23.7637 10.1055 23.6143 9.84766 23.3564L8.61719 22.1348C8.35352 21.8711 8.20117 21.5723 8.16016 21.2383C8.11914 20.9043 8.19531 20.585 8.38867 20.2803L9.23242 18.9355L9.15332 18.7158L7.59766 18.3555C7.25195 18.2734 6.97363 18.0977 6.7627 17.8281C6.55762 17.5586 6.45508 17.2451 6.45508 16.8877V15.1562C6.45508 14.7988 6.55762 14.4883 6.7627 14.2246C6.96777 13.9551 7.24609 13.7764 7.59766 13.6885L9.13574 13.3193L9.22363 13.082L8.37988 11.7373C8.18652 11.4385 8.11035 11.1221 8.15137 10.7881C8.19238 10.4541 8.34473 10.1553 8.6084 9.8916L9.83887 8.66113C10.0967 8.40332 10.3926 8.25391 10.7266 8.21289C11.0605 8.16602 11.3799 8.23633 11.6846 8.42383L13.0381 9.25879L13.2842 9.16211L13.6445 7.60645C13.7266 7.26074 13.8994 6.98535 14.1631 6.78027C14.4326 6.56934 14.749 6.46387 15.1123 6.46387H16.8965C17.2598 6.46387 17.5732 6.56934 17.8369 6.78027C18.1006 6.98535 18.2734 7.26074 18.3555 7.60645L18.7158 9.16211L18.9619 9.25879L20.3154 8.42383C20.6201 8.23633 20.9395 8.16602 21.2734 8.21289C21.6133 8.25391 21.9092 8.40332 22.1611 8.66113L23.3916 9.8916C23.6494 10.1553 23.7988 10.4541 23.8398 10.7881C23.8867 11.1221 23.8135 11.4385 23.6201 11.7373L22.7764 13.082L22.873 13.3193L24.4023 13.6885C24.748 13.7705 25.0234 13.9463 25.2285 14.2158C25.4395 14.4854 25.5449 14.7988 25.5449 15.1562V16.8877C25.5449 17.2451 25.4395 17.5586 25.2285 17.8281C25.0234 18.0918 24.748 18.2676 24.4023 18.3555L22.8555 18.7158L22.7676 18.9355L23.6113 20.2803C23.8047 20.585 23.8779 20.9043 23.8311 21.2383C23.79 21.5723 23.6406 21.8711 23.3828 22.1348L22.1523 23.3564C21.8945 23.6143 21.5957 23.7637 21.2559 23.8047C20.9219 23.8516 20.6025 23.7783 20.2979 23.585L18.9443 22.7588L18.7158 22.8379L18.3555 24.3936C18.2734 24.7451 18.1006 25.0234 17.8369 25.2285C17.5732 25.4336 17.2598 25.5361 16.8965 25.5361H15.1123ZM15.332 23.9453H16.6768C16.8174 23.9453 16.8965 23.8779 16.9141 23.7432L17.4414 21.5811C17.7344 21.5166 18.0068 21.4316 18.2588 21.3262C18.5107 21.2148 18.7451 21.0918 18.9619 20.957L20.8516 22.1172C20.9629 22.1934 21.0713 22.1816 21.1768 22.082L22.1084 21.1416C22.2021 21.0596 22.2109 20.9541 22.1348 20.8252L20.9746 18.9443C21.0977 18.7334 21.2119 18.499 21.3174 18.2412C21.4287 17.9834 21.5166 17.7168 21.5811 17.4414L23.752 16.9229C23.8867 16.8994 23.9541 16.8174 23.9541 16.6768V15.3584C23.9541 15.2236 23.8867 15.1416 23.752 15.1123L21.5898 14.5938C21.5195 14.3008 21.4258 14.0225 21.3086 13.7588C21.1973 13.4951 21.0889 13.2695 20.9834 13.082L22.1436 11.1924C22.2256 11.0693 22.2168 10.958 22.1172 10.8584L21.1855 9.94434C21.0859 9.85059 20.9746 9.83594 20.8516 9.90039L18.9619 11.0518C18.7451 10.9287 18.5078 10.8145 18.25 10.709C17.998 10.5977 17.7285 10.5068 17.4414 10.4365L16.9141 8.25684C16.8965 8.12207 16.8174 8.05469 16.6768 8.05469H15.332C15.1855 8.05469 15.1006 8.12207 15.0771 8.25684L14.5674 10.4189C14.2861 10.4893 14.0078 10.583 13.7324 10.7002C13.4629 10.8115 13.2285 10.9258 13.0293 11.043L11.1396 9.90039C11.0225 9.83594 10.9141 9.84766 10.8145 9.93555L9.87402 10.8584C9.78027 10.958 9.77148 11.0693 9.84766 11.1924L11.0078 13.082C10.9082 13.2695 10.7998 13.4951 10.6826 13.7588C10.5654 14.0225 10.4746 14.3008 10.4102 14.5938L8.24805 15.1123C8.11328 15.1416 8.0459 15.2236 8.0459 15.3584V16.6768C8.0459 16.8174 8.11328 16.8994 8.24805 16.9229L10.4102 17.4326C10.4805 17.7139 10.5713 17.9834 10.6826 18.2412C10.7939 18.4932 10.9082 18.7275 11.0254 18.9443L9.85645 20.834C9.78613 20.957 9.79492 21.0625 9.88281 21.1504L10.8232 22.082C10.9287 22.1816 11.0342 22.1963 11.1396 22.126L13.0381 20.957C13.2549 21.0918 13.4922 21.2148 13.75 21.3262C14.0137 21.4316 14.2832 21.5166 14.5586 21.5811L15.0771 23.7432C15.1006 23.8779 15.1855 23.9453 15.332 23.9453ZM16 19.3398C15.3906 19.3398 14.8311 19.1904 14.3213 18.8916C13.8174 18.5869 13.4131 18.1826 13.1084 17.6787C12.8096 17.1748 12.6602 16.6152 12.6602 16C12.6602 15.3906 12.8096 14.834 13.1084 14.3301C13.4131 13.8262 13.8174 13.4248 14.3213 13.126C14.8311 12.8271 15.3906 12.6777 16 12.6777C16.6152 12.6777 17.1748 12.8271 17.6787 13.126C18.1826 13.4248 18.584 13.8262 18.8828 14.3301C19.1816 14.834 19.3311 15.3906 19.3311 16C19.3311 16.6094 19.1816 17.1689 18.8828 17.6787C18.584 18.1885 18.1826 18.5928 17.6787 18.8916C17.1748 19.1904 16.6152 19.3398 16 19.3398ZM16 17.8281C16.3281 17.8281 16.6299 17.7461 16.9053 17.582C17.1807 17.4121 17.3975 17.1895 17.5557 16.9141C17.7197 16.6387 17.8018 16.334 17.8018 16C17.8018 15.666 17.7197 15.3643 17.5557 15.0947C17.3975 14.8193 17.1807 14.5996 16.9053 14.4355C16.6299 14.2715 16.3281 14.1895 16 14.1895C15.666 14.1895 15.3613 14.2715 15.0859 14.4355C14.8105 14.5996 14.5908 14.8193 14.4268 15.0947C14.2627 15.3643 14.1807 15.666 14.1807 16C14.1807 16.3398 14.2627 16.6475 14.4268 16.9229C14.5908 17.1982 14.8105 17.418 15.0859 17.582C15.3613 17.7461 15.666 17.8281 16 17.8281Z" fill="black"/>
</svg>
