<svg width="48" height="48" viewBox="0 0 48 48" fill="none" xmlns="http://www.w3.org/2000/svg">
<path d="M19.4209 29.3745C19.1865 29.3745 18.9902 29.2925 18.832 29.1284C18.6738 28.9644 18.5947 28.7681 18.5947 28.5396C18.5947 28.311 18.6738 28.1147 18.832 27.9507C18.9902 27.7866 19.1865 27.7046 19.4209 27.7046H28.6143C28.8486 27.7046 29.0449 27.7866 29.2031 27.9507C29.3672 28.1147 29.4492 28.311 29.4492 28.5396C29.4492 28.7739 29.3672 28.9731 29.2031 29.1372C29.0449 29.2954 28.8486 29.3745 28.6143 29.3745H19.4209ZM17.6367 24.8394C17.4082 24.8394 17.2119 24.7573 17.0479 24.5933C16.8896 24.4292 16.8105 24.2329 16.8105 24.0044C16.8105 23.77 16.8896 23.5737 17.0479 23.4155C17.2061 23.2515 17.4023 23.1694 17.6367 23.1694H30.4072C30.6299 23.1694 30.8203 23.2515 30.9785 23.4155C31.1426 23.5737 31.2246 23.77 31.2246 24.0044C31.2246 24.2329 31.1426 24.4292 30.9785 24.5933C30.8203 24.7573 30.6299 24.8394 30.4072 24.8394H17.6367ZM15.8174 20.2954C15.5889 20.2954 15.3926 20.2134 15.2285 20.0493C15.0703 19.8853 14.9912 19.6919 14.9912 19.4692C14.9912 19.2349 15.0703 19.0356 15.2285 18.8716C15.3926 18.7075 15.5889 18.6255 15.8174 18.6255H32.1826C32.417 18.6255 32.6133 18.7075 32.7715 18.8716C32.9297 19.0356 33.0088 19.2349 33.0088 19.4692C33.0088 19.6978 32.9297 19.894 32.7715 20.0581C32.6133 20.2163 32.417 20.2954 32.1826 20.2954H15.8174Z" fill="black"/>
</svg>
