<svg width="32" height="32" viewBox="0 0 32 32" fill="none" xmlns="http://www.w3.org/2000/svg">
<path d="M7.81738 21.3745C7.58301 21.3745 7.38672 21.2925 7.22852 21.1284C7.07031 20.9644 6.99121 20.7681 6.99121 20.5396C6.99121 20.311 7.07031 20.1147 7.22852 19.9507C7.38672 19.7866 7.58301 19.7046 7.81738 19.7046H17.0107C17.2451 19.7046 17.4414 19.7866 17.5996 19.9507C17.7637 20.1147 17.8457 20.311 17.8457 20.5396C17.8457 20.7739 17.7637 20.9731 17.5996 21.1372C17.4414 21.2954 17.2451 21.3745 17.0107 21.3745H7.81738Z" fill="black"/>
<path d="M7.81738 12.2954C7.58887 12.2954 7.39258 12.2134 7.22852 12.0493C7.07031 11.8853 6.99121 11.6919 6.99121 11.4692C6.99121 11.2349 7.07031 11.0356 7.22852 10.8716C7.39258 10.7075 7.58887 10.6255 7.81738 10.6255H24.1826C24.417 10.6255 24.6133 10.7075 24.7715 10.8716C24.9297 11.0356 25.0088 11.2349 25.0088 11.4692C25.0088 11.6978 24.9297 11.894 24.7715 12.0581C24.6133 12.2163 24.417 12.2954 24.1826 12.2954H7.81738Z" fill="black"/>
<path d="M7.81738 16.835C7.58887 16.835 7.39258 16.7529 7.22852 16.5889C7.07031 16.4248 6.99121 16.2314 6.99121 16.0088C6.99121 15.7744 7.07031 15.5752 7.22852 15.4111C7.39258 15.2471 7.58887 15.165 7.81738 15.165H24.1826C24.417 15.165 24.6133 15.2471 24.7715 15.4111C24.9297 15.5752 25.0088 15.7744 25.0088 16.0088C25.0088 16.2373 24.9297 16.4336 24.7715 16.5977C24.6133 16.7559 24.417 16.835 24.1826 16.835H7.81738Z" fill="black"/>
</svg>
