<svg width="48" height="48" viewBox="0 0 48 48" fill="none" xmlns="http://www.w3.org/2000/svg">
<path d="M15.8174 29.3745C15.583 29.3745 15.3867 29.2925 15.2285 29.1284C15.0703 28.9644 14.9912 28.7681 14.9912 28.5396C14.9912 28.311 15.0703 28.1147 15.2285 27.9507C15.3867 27.7866 15.583 27.7046 15.8174 27.7046H25.0107C25.2451 27.7046 25.4414 27.7866 25.5996 27.9507C25.7637 28.1147 25.8457 28.311 25.8457 28.5396C25.8457 28.7739 25.7637 28.9731 25.5996 29.1372C25.4414 29.2954 25.2451 29.3745 25.0107 29.3745H15.8174Z" fill="black"/>
<path d="M15.8174 20.2954C15.5889 20.2954 15.3926 20.2134 15.2285 20.0493C15.0703 19.8853 14.9912 19.6919 14.9912 19.4692C14.9912 19.2349 15.0703 19.0356 15.2285 18.8716C15.3926 18.7075 15.5889 18.6255 15.8174 18.6255H32.1826C32.417 18.6255 32.6133 18.7075 32.7715 18.8716C32.9297 19.0356 33.0088 19.2349 33.0088 19.4692C33.0088 19.6978 32.9297 19.894 32.7715 20.0581C32.6133 20.2163 32.417 20.2954 32.1826 20.2954H15.8174Z" fill="black"/>
<path d="M15.8174 24.835C15.5889 24.835 15.3926 24.7529 15.2285 24.5889C15.0703 24.4248 14.9912 24.2314 14.9912 24.0088C14.9912 23.7744 15.0703 23.5752 15.2285 23.4111C15.3926 23.2471 15.5889 23.165 15.8174 23.165H32.1826C32.417 23.165 32.6133 23.2471 32.7715 23.4111C32.9297 23.5752 33.0088 23.7744 33.0088 24.0088C33.0088 24.2373 32.9297 24.4336 32.7715 24.5977C32.6133 24.7559 32.417 24.835 32.1826 24.835H15.8174Z" fill="black"/>
</svg>
