<svg width="32" height="32" viewBox="0 0 32 32" fill="none" xmlns="http://www.w3.org/2000/svg">
<path d="M9.62354 16.9888C9.45361 16.9888 9.29541 16.9448 9.14893 16.8569C9.00244 16.7632 8.88232 16.6431 8.78857 16.4966C8.69482 16.3442 8.64795 16.1772 8.64795 15.9956C8.64795 15.8198 8.69482 15.6558 8.78857 15.5034C8.88232 15.3511 9.00244 15.231 9.14893 15.1431C9.29541 15.0552 9.45361 15.0112 9.62354 15.0112H22.3765C22.5464 15.0112 22.7046 15.0552 22.8511 15.1431C23.0034 15.231 23.1235 15.3511 23.2114 15.5034C23.3052 15.6558 23.3521 15.8198 23.3521 15.9956C23.3521 16.1772 23.3052 16.3442 23.2114 16.4966C23.1235 16.6431 23.0034 16.7632 22.8511 16.8569C22.7046 16.9448 22.5464 16.9888 22.3765 16.9888H9.62354Z" fill="black"/>
</svg>
