<svg width="48" height="48" viewBox="0 0 48 48" fill="none" xmlns="http://www.w3.org/2000/svg">
<path d="M17.6235 24.9888C17.4536 24.9888 17.2954 24.9448 17.1489 24.8569C17.0024 24.7632 16.8823 24.6431 16.7886 24.4966C16.6948 24.3442 16.6479 24.1772 16.6479 23.9956C16.6479 23.8198 16.6948 23.6558 16.7886 23.5034C16.8823 23.3511 17.0024 23.231 17.1489 23.1431C17.2954 23.0552 17.4536 23.0112 17.6235 23.0112H30.3765C30.5464 23.0112 30.7046 23.0552 30.8511 23.1431C31.0034 23.231 31.1235 23.3511 31.2114 23.5034C31.3052 23.6558 31.3521 23.8198 31.3521 23.9956C31.3521 24.1772 31.3052 24.3442 31.2114 24.4966C31.1235 24.6431 31.0034 24.7632 30.8511 24.8569C30.7046 24.9448 30.5464 24.9888 30.3765 24.9888H17.6235Z" fill="black"/>
</svg>
