<svg width="48" height="48" viewBox="0 0 48 48" fill="none" xmlns="http://www.w3.org/2000/svg">
<path d="M28.8779 26.8433C29.2178 26.8433 29.5518 26.8257 29.8799 26.7905C30.2139 26.7495 30.5273 26.6968 30.8203 26.6323C31.1191 26.562 31.3799 26.4771 31.6025 26.3774C31.7314 26.3247 31.8398 26.2896 31.9277 26.272C32.0215 26.2544 32.1123 26.2456 32.2002 26.2456C32.376 26.2456 32.5342 26.3101 32.6748 26.439C32.8213 26.5679 32.8945 26.7437 32.8945 26.9663C32.8945 27.0308 32.8828 27.1187 32.8594 27.23C32.8418 27.3413 32.8037 27.4644 32.7451 27.5991C32.2646 28.7007 31.6084 29.6499 30.7764 30.4468C29.9502 31.2495 28.9893 31.8647 27.8936 32.2925C26.7979 32.7261 25.6172 32.9429 24.3516 32.9429C23.0098 32.9429 21.7764 32.7114 20.6514 32.2485C19.5264 31.7915 18.5479 31.1499 17.7158 30.3237C16.8896 29.4917 16.248 28.5132 15.791 27.3882C15.334 26.2632 15.1055 25.0298 15.1055 23.688C15.1055 22.4517 15.3428 21.271 15.8174 20.146C16.292 19.0151 16.9482 18.022 17.7861 17.1665C18.6299 16.3052 19.5996 15.6519 20.6953 15.2065C20.8359 15.1479 20.9531 15.1099 21.0469 15.0923C21.1465 15.0688 21.2227 15.0571 21.2754 15.0571C21.5039 15.0571 21.6885 15.1362 21.8291 15.2944C21.9697 15.4526 22.04 15.6255 22.04 15.813C22.04 15.9185 22.0254 16.021 21.9961 16.1206C21.9727 16.2144 21.9229 16.3315 21.8467 16.4722C21.6826 16.7886 21.5508 17.2163 21.4512 17.7554C21.3574 18.2944 21.3105 18.8862 21.3105 19.5308C21.3105 21.0366 21.6182 22.3374 22.2334 23.4331C22.8486 24.5229 23.7217 25.3638 24.8525 25.9556C25.9834 26.5474 27.3252 26.8433 28.8779 26.8433ZM16.8018 23.6353C16.8018 24.7427 16.9893 25.7593 17.3643 26.6851C17.7393 27.6108 18.2666 28.4165 18.9463 29.1021C19.6318 29.7817 20.4375 30.3091 21.3633 30.6841C22.2891 31.0649 23.2998 31.2554 24.3955 31.2554C25.251 31.2554 26.0713 31.1294 26.8564 30.8774C27.6475 30.6255 28.3623 30.2622 29.001 29.7876C29.6455 29.313 30.1816 28.7476 30.6094 28.0913C30.3047 28.2026 29.9854 28.2817 29.6514 28.3286C29.3232 28.3755 28.9688 28.3989 28.5879 28.3989C26.7422 28.3989 25.1572 28.0532 23.833 27.3618C22.5146 26.6646 21.501 25.6685 20.792 24.3735C20.0889 23.0786 19.7373 21.5288 19.7373 19.7241C19.7373 19.2905 19.7666 18.8774 19.8252 18.4849C19.8896 18.0864 19.9805 17.7085 20.0977 17.3511C19.418 17.8081 18.832 18.3677 18.3398 19.0298C17.8477 19.6919 17.4668 20.4185 17.1973 21.2095C16.9336 22.0005 16.8018 22.8091 16.8018 23.6353Z" fill="black"/>
</svg>
