<svg width="32" height="32" viewBox="0 0 32 32" fill="none" xmlns="http://www.w3.org/2000/svg">
<path d="M20.8779 18.8433C21.2178 18.8433 21.5518 18.8257 21.8799 18.7905C22.2139 18.7495 22.5273 18.6968 22.8203 18.6323C23.1191 18.562 23.3799 18.4771 23.6025 18.3774C23.7314 18.3247 23.8398 18.2896 23.9277 18.272C24.0215 18.2544 24.1123 18.2456 24.2002 18.2456C24.376 18.2456 24.5342 18.3101 24.6748 18.439C24.8213 18.5679 24.8945 18.7437 24.8945 18.9663C24.8945 19.0308 24.8828 19.1187 24.8594 19.23C24.8418 19.3413 24.8037 19.4644 24.7451 19.5991C24.2646 20.7007 23.6084 21.6499 22.7764 22.4468C21.9502 23.2495 20.9893 23.8647 19.8936 24.2925C18.7979 24.7261 17.6172 24.9429 16.3516 24.9429C15.0098 24.9429 13.7764 24.7114 12.6514 24.2485C11.5264 23.7915 10.5479 23.1499 9.71582 22.3237C8.88965 21.4917 8.24805 20.5132 7.79102 19.3882C7.33398 18.2632 7.10547 17.0298 7.10547 15.688C7.10547 14.4517 7.34277 13.271 7.81738 12.146C8.29199 11.0151 8.94824 10.022 9.78613 9.1665C10.6299 8.30518 11.5996 7.65186 12.6953 7.20654C12.8359 7.14795 12.9531 7.10986 13.0469 7.09229C13.1465 7.06885 13.2227 7.05713 13.2754 7.05713C13.5039 7.05713 13.6885 7.13623 13.8291 7.29443C13.9697 7.45264 14.04 7.62549 14.04 7.81299C14.04 7.91846 14.0254 8.021 13.9961 8.12061C13.9727 8.21436 13.9229 8.33154 13.8467 8.47217C13.6826 8.78857 13.5508 9.21631 13.4512 9.75537C13.3574 10.2944 13.3105 10.8862 13.3105 11.5308C13.3105 13.0366 13.6182 14.3374 14.2334 15.4331C14.8486 16.5229 15.7217 17.3638 16.8525 17.9556C17.9834 18.5474 19.3252 18.8433 20.8779 18.8433ZM8.80176 15.6353C8.80176 16.7427 8.98926 17.7593 9.36426 18.6851C9.73926 19.6108 10.2666 20.4165 10.9463 21.1021C11.6318 21.7817 12.4375 22.3091 13.3633 22.6841C14.2891 23.0649 15.2998 23.2554 16.3955 23.2554C17.251 23.2554 18.0713 23.1294 18.8564 22.8774C19.6475 22.6255 20.3623 22.2622 21.001 21.7876C21.6455 21.313 22.1816 20.7476 22.6094 20.0913C22.3047 20.2026 21.9854 20.2817 21.6514 20.3286C21.3232 20.3755 20.9688 20.3989 20.5879 20.3989C18.7422 20.3989 17.1572 20.0532 15.833 19.3618C14.5146 18.6646 13.501 17.6685 12.792 16.3735C12.0889 15.0786 11.7373 13.5288 11.7373 11.7241C11.7373 11.2905 11.7666 10.8774 11.8252 10.4849C11.8896 10.0864 11.9805 9.7085 12.0977 9.35107C11.418 9.80811 10.832 10.3677 10.3398 11.0298C9.84766 11.6919 9.4668 12.4185 9.19727 13.2095C8.93359 14.0005 8.80176 14.8091 8.80176 15.6353Z" fill="black"/>
</svg>
