<svg width="48" height="48" viewBox="0 0 48 48" fill="none" xmlns="http://www.w3.org/2000/svg">
<path d="M21.0117 33.8086C20.7949 33.8086 20.5957 33.7441 20.4141 33.6152C20.2324 33.4922 20.0449 33.29 19.8516 33.0088C19.2305 32.1357 18.7119 31.207 18.2959 30.2227C17.8857 29.2324 17.5752 28.2129 17.3643 27.1641C17.1533 26.1152 17.0479 25.0576 17.0479 23.9912C17.0479 22.9248 17.1504 21.8672 17.3555 20.8184C17.5664 19.7637 17.877 18.7471 18.2871 17.7686C18.7031 16.7842 19.2188 15.8584 19.834 14.9912C20.0273 14.7158 20.2148 14.5137 20.3965 14.3848C20.5781 14.2559 20.7773 14.1914 20.9941 14.1914C21.2051 14.1914 21.3809 14.2559 21.5215 14.3848C21.668 14.5078 21.7412 14.6572 21.7412 14.833C21.7412 14.9443 21.7236 15.0527 21.6885 15.1582C21.6533 15.2578 21.5977 15.3691 21.5215 15.4922C21.0293 16.3594 20.6162 17.2646 20.2822 18.208C19.9541 19.1455 19.7051 20.1006 19.5352 21.0732C19.3711 22.0459 19.2891 23.0186 19.2891 23.9912C19.2891 24.9639 19.374 25.9453 19.5439 26.9355C19.7197 27.9199 19.9746 28.8838 20.3086 29.8271C20.6484 30.7705 21.0586 31.667 21.5391 32.5166C21.6152 32.6455 21.6709 32.7598 21.7061 32.8594C21.7412 32.959 21.7588 33.0645 21.7588 33.1758C21.7588 33.3516 21.6855 33.501 21.5391 33.624C21.3926 33.7471 21.2168 33.8086 21.0117 33.8086ZM26.9795 33.8086C26.7744 33.8086 26.5986 33.7471 26.4521 33.624C26.3115 33.501 26.2412 33.3516 26.2412 33.1758C26.2412 33.0645 26.2559 32.959 26.2852 32.8594C26.3203 32.7598 26.376 32.6455 26.4521 32.5166C26.9385 31.667 27.3486 30.7705 27.6826 29.8271C28.0225 28.8838 28.2773 27.9199 28.4473 26.9355C28.623 25.9453 28.7109 24.9639 28.7109 23.9912C28.7109 23.0186 28.626 22.0459 28.4561 21.0732C28.292 20.1006 28.043 19.1455 27.709 18.208C27.375 17.2646 26.9619 16.3594 26.4697 15.4922C26.3994 15.3691 26.3438 15.2578 26.3027 15.1582C26.2676 15.0527 26.25 14.9443 26.25 14.833C26.25 14.6572 26.3232 14.5078 26.4697 14.3848C26.6162 14.2559 26.792 14.1914 26.9971 14.1914C27.2139 14.1914 27.4131 14.2559 27.5947 14.3848C27.7764 14.5137 27.9639 14.7158 28.1572 14.9912C28.7725 15.8584 29.2852 16.7842 29.6953 17.7686C30.1113 18.7471 30.4248 19.7637 30.6357 20.8184C30.8467 21.8672 30.9521 22.9248 30.9521 23.9912C30.9521 25.0576 30.8467 26.1152 30.6357 27.1641C30.4248 28.2129 30.1113 29.2324 29.6953 30.2227C29.2793 31.207 28.7637 32.1357 28.1484 33.0088C27.9551 33.29 27.7676 33.4922 27.5859 33.6152C27.4043 33.7441 27.2021 33.8086 26.9795 33.8086Z" fill="black"/>
</svg>
