<svg width="32" height="32" viewBox="0 0 32 32" fill="none" xmlns="http://www.w3.org/2000/svg">
<path d="M13.0117 25.8086C12.7949 25.8086 12.5957 25.7441 12.4141 25.6152C12.2324 25.4922 12.0449 25.29 11.8516 25.0088C11.2305 24.1357 10.7119 23.207 10.2959 22.2227C9.88574 21.2324 9.5752 20.2129 9.36426 19.1641C9.15332 18.1152 9.04785 17.0576 9.04785 15.9912C9.04785 14.9248 9.15039 13.8672 9.35547 12.8184C9.56641 11.7637 9.87695 10.7471 10.2871 9.76855C10.7031 8.78418 11.2188 7.8584 11.834 6.99121C12.0273 6.71582 12.2148 6.51367 12.3965 6.38477C12.5781 6.25586 12.7773 6.19141 12.9941 6.19141C13.2051 6.19141 13.3809 6.25586 13.5215 6.38477C13.668 6.50781 13.7412 6.65723 13.7412 6.83301C13.7412 6.94434 13.7236 7.05273 13.6885 7.1582C13.6533 7.25781 13.5977 7.36914 13.5215 7.49219C13.0293 8.35938 12.6162 9.26465 12.2822 10.208C11.9541 11.1455 11.7051 12.1006 11.5352 13.0732C11.3711 14.0459 11.2891 15.0186 11.2891 15.9912C11.2891 16.9639 11.374 17.9453 11.5439 18.9355C11.7197 19.9199 11.9746 20.8838 12.3086 21.8271C12.6484 22.7705 13.0586 23.667 13.5391 24.5166C13.6152 24.6455 13.6709 24.7598 13.7061 24.8594C13.7412 24.959 13.7588 25.0645 13.7588 25.1758C13.7588 25.3516 13.6855 25.501 13.5391 25.624C13.3926 25.7471 13.2168 25.8086 13.0117 25.8086ZM18.9795 25.8086C18.7744 25.8086 18.5986 25.7471 18.4521 25.624C18.3115 25.501 18.2412 25.3516 18.2412 25.1758C18.2412 25.0645 18.2559 24.959 18.2852 24.8594C18.3203 24.7598 18.376 24.6455 18.4521 24.5166C18.9385 23.667 19.3486 22.7705 19.6826 21.8271C20.0225 20.8838 20.2773 19.9199 20.4473 18.9355C20.623 17.9453 20.7109 16.9639 20.7109 15.9912C20.7109 15.0186 20.626 14.0459 20.4561 13.0732C20.292 12.1006 20.043 11.1455 19.709 10.208C19.375 9.26465 18.9619 8.35938 18.4697 7.49219C18.3994 7.36914 18.3438 7.25781 18.3027 7.1582C18.2676 7.05273 18.25 6.94434 18.25 6.83301C18.25 6.65723 18.3232 6.50781 18.4697 6.38477C18.6162 6.25586 18.792 6.19141 18.9971 6.19141C19.2139 6.19141 19.4131 6.25586 19.5947 6.38477C19.7764 6.51367 19.9639 6.71582 20.1572 6.99121C20.7725 7.8584 21.2852 8.78418 21.6953 9.76855C22.1113 10.7471 22.4248 11.7637 22.6357 12.8184C22.8467 13.8672 22.9521 14.9248 22.9521 15.9912C22.9521 17.0576 22.8467 18.1152 22.6357 19.1641C22.4248 20.2129 22.1113 21.2324 21.6953 22.2227C21.2793 23.207 20.7637 24.1357 20.1484 25.0088C19.9551 25.29 19.7676 25.4922 19.5859 25.6152C19.4043 25.7441 19.2021 25.8086 18.9795 25.8086Z" fill="black"/>
</svg>
