<svg width="48" height="48" viewBox="0 0 48 48" fill="none" xmlns="http://www.w3.org/2000/svg">
<path d="M16.6436 24C16.6436 23.7305 16.7402 23.499 16.9336 23.3057C17.127 23.1064 17.3584 23.0068 17.6279 23.0068H23.0156V17.6279C23.0156 17.3584 23.1123 17.127 23.3057 16.9336C23.499 16.7402 23.7305 16.6436 24 16.6436C24.2754 16.6436 24.5098 16.7402 24.7031 16.9336C24.8965 17.127 24.9932 17.3584 24.9932 17.6279V23.0068H30.3721C30.6416 23.0068 30.873 23.1064 31.0664 23.3057C31.2598 23.499 31.3564 23.7305 31.3564 24C31.3564 24.2754 31.2598 24.5098 31.0664 24.7031C30.873 24.8906 30.6416 24.9844 30.3721 24.9844H24.9932V30.3809C24.9932 30.6445 24.8965 30.873 24.7031 31.0664C24.5098 31.2598 24.2754 31.3564 24 31.3564C23.7305 31.3564 23.499 31.2598 23.3057 31.0664C23.1123 30.873 23.0156 30.6445 23.0156 30.3809V24.9844H17.6279C17.3584 24.9844 17.127 24.8906 16.9336 24.7031C16.7402 24.5098 16.6436 24.2754 16.6436 24Z" fill="black"/>
</svg>
