<svg width="32" height="32" viewBox="0 0 32 32" fill="none" xmlns="http://www.w3.org/2000/svg">
<path d="M8.64355 16C8.64355 15.7305 8.74023 15.499 8.93359 15.3057C9.12695 15.1064 9.3584 15.0068 9.62793 15.0068H15.0156V9.62793C15.0156 9.3584 15.1123 9.12695 15.3057 8.93359C15.499 8.74023 15.7305 8.64355 16 8.64355C16.2754 8.64355 16.5098 8.74023 16.7031 8.93359C16.8965 9.12695 16.9932 9.3584 16.9932 9.62793V15.0068H22.3721C22.6416 15.0068 22.873 15.1064 23.0664 15.3057C23.2598 15.499 23.3564 15.7305 23.3564 16C23.3564 16.2754 23.2598 16.5098 23.0664 16.7031C22.873 16.8906 22.6416 16.9844 22.3721 16.9844H16.9932V22.3809C16.9932 22.6445 16.8965 22.873 16.7031 23.0664C16.5098 23.2598 16.2754 23.3564 16 23.3564C15.7305 23.3564 15.499 23.2598 15.3057 23.0664C15.1123 22.873 15.0156 22.6445 15.0156 22.3809V16.9844H9.62793C9.3584 16.9844 9.12695 16.8906 8.93359 16.7031C8.74023 16.5098 8.64355 16.2754 8.64355 16Z" fill="black"/>
</svg>
