<svg width="32" height="32" viewBox="0 0 32 32" fill="none" xmlns="http://www.w3.org/2000/svg">
<path d="M7.58447 18.5444C7.58447 17.3843 7.83643 16.3618 8.34033 15.4771C8.84424 14.5923 9.56787 13.9009 10.5112 13.4028C11.4604 12.8989 12.6001 12.647 13.9302 12.647H19.4673L22.4292 12.7876L22.1567 13.2974L19.9595 11.4429L17.7007 9.23682C17.6128 9.14893 17.5425 9.05225 17.4897 8.94678C17.4429 8.83545 17.4194 8.70947 17.4194 8.56885C17.4194 8.29346 17.5044 8.06787 17.6743 7.89209C17.8501 7.71631 18.0786 7.62842 18.3599 7.62842C18.6294 7.62842 18.8638 7.73096 19.063 7.93604L24.1079 12.9019C24.2075 12.9956 24.2837 13.1069 24.3364 13.2358C24.3892 13.3589 24.4155 13.4878 24.4155 13.6226C24.4155 13.7515 24.3892 13.8774 24.3364 14.0005C24.2837 14.1235 24.2075 14.2349 24.1079 14.3345L19.063 19.3003C18.8638 19.4995 18.6294 19.5991 18.3599 19.5991C18.0786 19.5991 17.8501 19.5112 17.6743 19.3354C17.5044 19.1597 17.4194 18.937 17.4194 18.6675C17.4194 18.5269 17.4429 18.4009 17.4897 18.2896C17.5425 18.1782 17.6128 18.0815 17.7007 17.9995L19.9595 15.8022L22.1567 13.9478L22.4292 14.4487L19.4673 14.5806H13.8862C12.937 14.5806 12.1372 14.7476 11.4868 15.0815C10.8364 15.4097 10.3413 15.8667 10.0015 16.4526C9.66162 17.0386 9.4917 17.7124 9.4917 18.4741C9.4917 19.2358 9.66162 19.9155 10.0015 20.5132C10.3413 21.1108 10.8364 21.5825 11.4868 21.9282C12.1372 22.2739 12.937 22.4468 13.8862 22.4468H15.9253C16.2124 22.4468 16.4468 22.5405 16.6284 22.728C16.8159 22.9155 16.9097 23.1411 16.9097 23.4048C16.9097 23.6743 16.8159 23.9028 16.6284 24.0903C16.4468 24.2778 16.2124 24.3716 15.9253 24.3716H13.8159C12.5034 24.3716 11.3813 24.1313 10.4497 23.6509C9.52393 23.1704 8.81494 22.4937 8.32275 21.6206C7.83057 20.7476 7.58447 19.7222 7.58447 18.5444Z" fill="black"/>
</svg>
