<svg width="48" height="48" viewBox="0 0 48 48" fill="none" xmlns="http://www.w3.org/2000/svg">
<path d="M15.5845 26.5444C15.5845 25.3843 15.8364 24.3618 16.3403 23.4771C16.8442 22.5923 17.5679 21.9009 18.5112 21.4028C19.4604 20.8989 20.6001 20.647 21.9302 20.647H27.4673L30.4292 20.7876L30.1567 21.2974L27.9595 19.4429L25.7007 17.2368C25.6128 17.1489 25.5425 17.0522 25.4897 16.9468C25.4429 16.8354 25.4194 16.7095 25.4194 16.5688C25.4194 16.2935 25.5044 16.0679 25.6743 15.8921C25.8501 15.7163 26.0786 15.6284 26.3599 15.6284C26.6294 15.6284 26.8638 15.731 27.063 15.936L32.1079 20.9019C32.2075 20.9956 32.2837 21.1069 32.3364 21.2358C32.3892 21.3589 32.4155 21.4878 32.4155 21.6226C32.4155 21.7515 32.3892 21.8774 32.3364 22.0005C32.2837 22.1235 32.2075 22.2349 32.1079 22.3345L27.063 27.3003C26.8638 27.4995 26.6294 27.5991 26.3599 27.5991C26.0786 27.5991 25.8501 27.5112 25.6743 27.3354C25.5044 27.1597 25.4194 26.937 25.4194 26.6675C25.4194 26.5269 25.4429 26.4009 25.4897 26.2896C25.5425 26.1782 25.6128 26.0815 25.7007 25.9995L27.9595 23.8022L30.1567 21.9478L30.4292 22.4487L27.4673 22.5806H21.8862C20.937 22.5806 20.1372 22.7476 19.4868 23.0815C18.8364 23.4097 18.3413 23.8667 18.0015 24.4526C17.6616 25.0386 17.4917 25.7124 17.4917 26.4741C17.4917 27.2358 17.6616 27.9155 18.0015 28.5132C18.3413 29.1108 18.8364 29.5825 19.4868 29.9282C20.1372 30.2739 20.937 30.4468 21.8862 30.4468H23.9253C24.2124 30.4468 24.4468 30.5405 24.6284 30.728C24.8159 30.9155 24.9097 31.1411 24.9097 31.4048C24.9097 31.6743 24.8159 31.9028 24.6284 32.0903C24.4468 32.2778 24.2124 32.3716 23.9253 32.3716H21.8159C20.5034 32.3716 19.3813 32.1313 18.4497 31.6509C17.5239 31.1704 16.8149 30.4937 16.3228 29.6206C15.8306 28.7476 15.5845 27.7222 15.5845 26.5444Z" fill="black"/>
</svg>
