<svg width="32" height="32" viewBox="0 0 32 32" fill="none" xmlns="http://www.w3.org/2000/svg">
<path d="M9.9707 23.8354C9.49023 23.8354 9.11523 23.6978 8.8457 23.4224C8.57617 23.1528 8.37402 22.8013 8.23926 22.3677L6.45508 16.5581C6.42578 16.4702 6.39941 16.3794 6.37598 16.2856C6.3584 16.1919 6.34961 16.0923 6.34961 15.9868C6.34961 15.7231 6.44043 15.5005 6.62207 15.3188C6.80957 15.1313 7.04688 15.0376 7.33398 15.0376C7.59766 15.0376 7.80859 15.1079 7.9668 15.2485C8.125 15.3892 8.24512 15.603 8.32715 15.8901L9.90918 21.4536H10.085L13.7236 9.53564C13.8701 9.06104 14.0811 8.71533 14.3564 8.49854C14.6318 8.27588 15.042 8.16455 15.5869 8.16455H24.6396C24.9443 8.16455 25.1875 8.25244 25.3691 8.42822C25.5566 8.604 25.6504 8.83545 25.6504 9.12256C25.6504 9.41553 25.5566 9.65283 25.3691 9.83447C25.1875 10.0103 24.9443 10.0981 24.6396 10.0981H15.6309L11.7988 22.2886C11.6465 22.7339 11.4297 23.103 11.1484 23.396C10.873 23.689 10.4805 23.8354 9.9707 23.8354ZM17.3184 22.1655C17.084 22.1655 16.8906 22.0923 16.7383 21.9458C16.5859 21.7993 16.5098 21.6147 16.5098 21.3921C16.5098 21.187 16.5771 20.9907 16.7119 20.8032L18.9795 17.7007L16.835 14.7563C16.6709 14.5513 16.5889 14.3374 16.5889 14.1147C16.5889 13.8921 16.6709 13.7017 16.835 13.5435C17.0049 13.3853 17.21 13.3062 17.4502 13.3062C17.6377 13.3062 17.793 13.3442 17.916 13.4204C18.0391 13.4907 18.165 13.6226 18.2939 13.8159L20.1572 16.5317H20.21L22.0029 13.8247C22.1318 13.6313 22.2578 13.4966 22.3809 13.4204C22.5039 13.3442 22.6562 13.3062 22.8379 13.3062C23.0781 13.3062 23.2773 13.3823 23.4355 13.5347C23.5938 13.6812 23.6729 13.8657 23.6729 14.0884C23.6729 14.2935 23.5967 14.4956 23.4443 14.6948L21.1943 17.7358L23.4268 20.7593C23.5732 20.9526 23.6465 21.1548 23.6465 21.3657C23.6465 21.6001 23.5645 21.7935 23.4004 21.9458C23.2422 22.0923 23.04 22.1655 22.7939 22.1655C22.6064 22.1655 22.4541 22.1274 22.3369 22.0513C22.2197 21.9692 22.0908 21.8286 21.9502 21.6294L20.0869 18.9312H20.043L18.1621 21.6294C18.0215 21.8286 17.8896 21.9692 17.7666 22.0513C17.6494 22.1274 17.5 22.1655 17.3184 22.1655Z" fill="black"/>
</svg>
