<svg width="48" height="48" viewBox="0 0 48 48" fill="none" xmlns="http://www.w3.org/2000/svg">
<path d="M17.9707 31.8354C17.4902 31.8354 17.1152 31.6978 16.8457 31.4224C16.5762 31.1528 16.374 30.8013 16.2393 30.3677L14.4551 24.5581C14.4258 24.4702 14.3994 24.3794 14.376 24.2856C14.3584 24.1919 14.3496 24.0923 14.3496 23.9868C14.3496 23.7231 14.4404 23.5005 14.6221 23.3188C14.8096 23.1313 15.0469 23.0376 15.334 23.0376C15.5977 23.0376 15.8086 23.1079 15.9668 23.2485C16.125 23.3892 16.2451 23.603 16.3271 23.8901L17.9092 29.4536H18.085L21.7236 17.5356C21.8701 17.061 22.0811 16.7153 22.3564 16.4985C22.6318 16.2759 23.042 16.1646 23.5869 16.1646H32.6396C32.9443 16.1646 33.1875 16.2524 33.3691 16.4282C33.5566 16.604 33.6504 16.8354 33.6504 17.1226C33.6504 17.4155 33.5566 17.6528 33.3691 17.8345C33.1875 18.0103 32.9443 18.0981 32.6396 18.0981H23.6309L19.7988 30.2886C19.6465 30.7339 19.4297 31.103 19.1484 31.396C18.873 31.689 18.4805 31.8354 17.9707 31.8354ZM25.3184 30.1655C25.084 30.1655 24.8906 30.0923 24.7383 29.9458C24.5859 29.7993 24.5098 29.6147 24.5098 29.3921C24.5098 29.187 24.5771 28.9907 24.7119 28.8032L26.9795 25.7007L24.835 22.7563C24.6709 22.5513 24.5889 22.3374 24.5889 22.1147C24.5889 21.8921 24.6709 21.7017 24.835 21.5435C25.0049 21.3853 25.21 21.3062 25.4502 21.3062C25.6377 21.3062 25.793 21.3442 25.916 21.4204C26.0391 21.4907 26.165 21.6226 26.2939 21.8159L28.1572 24.5317H28.21L30.0029 21.8247C30.1318 21.6313 30.2578 21.4966 30.3809 21.4204C30.5039 21.3442 30.6562 21.3062 30.8379 21.3062C31.0781 21.3062 31.2773 21.3823 31.4355 21.5347C31.5938 21.6812 31.6729 21.8657 31.6729 22.0884C31.6729 22.2935 31.5967 22.4956 31.4443 22.6948L29.1943 25.7358L31.4268 28.7593C31.5732 28.9526 31.6465 29.1548 31.6465 29.3657C31.6465 29.6001 31.5645 29.7935 31.4004 29.9458C31.2422 30.0923 31.04 30.1655 30.7939 30.1655C30.6064 30.1655 30.4541 30.1274 30.3369 30.0513C30.2197 29.9692 30.0908 29.8286 29.9502 29.6294L28.0869 26.9312H28.043L26.1621 29.6294C26.0215 29.8286 25.8896 29.9692 25.7666 30.0513C25.6494 30.1274 25.5 30.1655 25.3184 30.1655Z" fill="black"/>
</svg>
