<svg width="32" height="32" viewBox="0 0 32 32" fill="none" xmlns="http://www.w3.org/2000/svg">
<path d="M12.1987 24.0903C11.8999 24.0903 11.6421 24.0259 11.4253 23.897C11.2144 23.7739 11.0532 23.6099 10.9419 23.4048C10.8364 23.2056 10.7837 22.9888 10.7837 22.7544C10.7837 22.5552 10.8247 22.356 10.9067 22.1567C10.9888 21.9575 11.1118 21.7759 11.2759 21.6118L16.189 15.978V15.8726L11.2935 10.3882C11.1235 10.2241 10.9976 10.0425 10.9155 9.84326C10.8335 9.64404 10.7925 9.44482 10.7925 9.24561C10.7925 9.01123 10.8452 8.79443 10.9507 8.59521C11.062 8.39014 11.2231 8.22607 11.4341 8.10303C11.645 7.97412 11.9028 7.90967 12.2075 7.90967H20.2144C20.5132 7.90967 20.7534 7.99463 20.9351 8.16455C21.1226 8.32861 21.2163 8.55127 21.2163 8.83252C21.2163 9.10791 21.1226 9.3335 20.9351 9.50928C20.7534 9.6792 20.5132 9.76416 20.2144 9.76416H13.2095V9.85205L17.6743 14.8882C17.8325 15.0464 17.9526 15.2163 18.0347 15.3979C18.1167 15.5796 18.1577 15.7612 18.1577 15.9429C18.1577 16.1187 18.1167 16.2944 18.0347 16.4702C17.9526 16.646 17.8354 16.8159 17.6831 16.98L13.2007 22.1479V22.2358H20.2144C20.5073 22.2358 20.7446 22.3208 20.9263 22.4907C21.1138 22.6665 21.2075 22.8921 21.2075 23.1675C21.2075 23.4487 21.1138 23.6714 20.9263 23.8354C20.7446 24.0054 20.5073 24.0903 20.2144 24.0903H12.1987Z" fill="black"/>
</svg>
