<svg width="48" height="48" viewBox="0 0 48 48" fill="none" xmlns="http://www.w3.org/2000/svg">
<path d="M23.9956 28.6274C23.3628 28.6274 22.7681 28.5073 22.2114 28.2671C21.6548 28.021 21.1626 27.687 20.7349 27.2651C20.3071 26.8374 19.9731 26.3452 19.7329 25.7886C19.4927 25.2319 19.3726 24.6372 19.3726 24.0044C19.3726 23.3716 19.4927 22.7769 19.7329 22.2202C19.9731 21.6577 20.3071 21.1655 20.7349 20.7437C21.1626 20.3159 21.6548 19.9819 22.2114 19.7417C22.7681 19.4956 23.3628 19.3726 23.9956 19.3726C24.6226 19.3726 25.2144 19.4956 25.771 19.7417C26.3335 19.9819 26.8257 20.3159 27.2476 20.7437C27.6694 21.1655 28.0005 21.6577 28.2407 22.2202C28.4868 22.7769 28.6099 23.3716 28.6099 24.0044C28.6099 24.6372 28.4868 25.2319 28.2407 25.7886C28.0005 26.3452 27.6694 26.8374 27.2476 27.2651C26.8257 27.687 26.3335 28.021 25.771 28.2671C25.2144 28.5073 24.6226 28.6274 23.9956 28.6274ZM23.9956 26.9839C24.5405 26.9839 25.0386 26.8491 25.4897 26.5796C25.9409 26.3101 26.3013 25.9497 26.5708 25.4985C26.8403 25.0474 26.9751 24.5493 26.9751 24.0044C26.9751 23.4595 26.8403 22.9614 26.5708 22.5103C26.3013 22.0591 25.9409 21.6987 25.4897 21.4292C25.0386 21.1538 24.5405 21.0161 23.9956 21.0161C23.4507 21.0161 22.9526 21.1538 22.5015 21.4292C22.0503 21.6987 21.687 22.0591 21.4116 22.5103C21.1421 22.9614 21.0073 23.4595 21.0073 24.0044C21.0073 24.5493 21.1421 25.0474 21.4116 25.4985C21.687 25.9497 22.0503 26.3101 22.5015 26.5796C22.9526 26.8491 23.4507 26.9839 23.9956 26.9839ZM24.8833 15.0835V16.8765C24.8833 17.1167 24.7954 17.3247 24.6196 17.5005C24.4438 17.6704 24.2358 17.7554 23.9956 17.7554C23.7554 17.7554 23.5474 17.6704 23.3716 17.5005C23.2017 17.3247 23.1167 17.1167 23.1167 16.8765V15.0835C23.1167 14.8433 23.2017 14.6353 23.3716 14.4595C23.5474 14.2837 23.7554 14.1958 23.9956 14.1958C24.2358 14.1958 24.4438 14.2837 24.6196 14.4595C24.7954 14.6353 24.8833 14.8433 24.8833 15.0835ZM28.3989 18.3618L29.6821 17.0874C29.8462 16.9175 30.0513 16.8325 30.2974 16.8325C30.5435 16.8267 30.7515 16.9087 30.9214 17.0786C31.0854 17.2485 31.1675 17.4595 31.1675 17.7114C31.1733 17.9575 31.0913 18.1655 30.9214 18.3354L29.6558 19.6011C29.48 19.7769 29.269 19.8647 29.0229 19.8647C28.7769 19.8647 28.5688 19.7798 28.3989 19.6099C28.229 19.4399 28.144 19.2319 28.144 18.9858C28.144 18.7397 28.229 18.5317 28.3989 18.3618ZM32.8901 24.8833H31.1147C30.8745 24.8833 30.6665 24.7983 30.4907 24.6284C30.3149 24.4526 30.2271 24.2446 30.2271 24.0044C30.2271 23.7642 30.3149 23.5591 30.4907 23.3892C30.6665 23.2134 30.8745 23.1255 31.1147 23.1255H32.8901C33.1362 23.1255 33.3472 23.2134 33.5229 23.3892C33.6987 23.5591 33.7866 23.7642 33.7866 24.0044C33.7866 24.2446 33.6987 24.4526 33.5229 24.6284C33.3472 24.7983 33.1362 24.8833 32.8901 24.8833ZM29.647 28.4077L30.9214 29.6733C31.0913 29.8433 31.1763 30.0542 31.1763 30.3062C31.1763 30.5522 31.0942 30.7573 30.9302 30.9214C30.7603 31.0913 30.5522 31.1763 30.3062 31.1763C30.0601 31.1821 29.8521 31.103 29.6821 30.939L28.3989 29.6558C28.229 29.4858 28.144 29.2778 28.144 29.0317C28.144 28.7856 28.229 28.5806 28.3989 28.4165C28.5688 28.2466 28.7769 28.1616 29.0229 28.1616C29.269 28.1558 29.4771 28.2378 29.647 28.4077ZM24.8833 31.1323V32.9165C24.8833 33.1567 24.7954 33.3647 24.6196 33.5405C24.4438 33.7163 24.2358 33.8042 23.9956 33.8042C23.7554 33.8042 23.5474 33.7163 23.3716 33.5405C23.2017 33.3647 23.1167 33.1567 23.1167 32.9165V31.1323C23.1167 30.8862 23.2017 30.6753 23.3716 30.4995C23.5474 30.3296 23.7554 30.2446 23.9956 30.2446C24.2358 30.2446 24.4438 30.3296 24.6196 30.4995C24.7954 30.6753 24.8833 30.8862 24.8833 31.1323ZM17.0698 29.6646L18.3354 28.4077C18.5054 28.2378 18.7134 28.1558 18.9595 28.1616C19.2114 28.1616 19.4224 28.2466 19.5923 28.4165C19.7622 28.5806 19.8442 28.7856 19.8384 29.0317C19.8325 29.2778 19.7446 29.4858 19.5747 29.6558L18.3091 30.9302C18.1392 31.0942 17.9282 31.1733 17.6763 31.1675C17.4302 31.1675 17.2222 31.0825 17.0522 30.9126C16.894 30.7485 16.8149 30.5435 16.8149 30.2974C16.8149 30.0454 16.8999 29.8345 17.0698 29.6646ZM15.0923 23.1255H16.8765C17.1167 23.1255 17.3247 23.2134 17.5005 23.3892C17.6763 23.5591 17.7642 23.7642 17.7642 24.0044C17.7642 24.2446 17.6763 24.4526 17.5005 24.6284C17.3247 24.7983 17.1167 24.8833 16.8765 24.8833H15.0923C14.8579 24.8833 14.6528 24.7983 14.4771 24.6284C14.3013 24.4526 14.2134 24.2446 14.2134 24.0044C14.2134 23.7642 14.3013 23.5591 14.4771 23.3892C14.6528 23.2134 14.8579 23.1255 15.0923 23.1255ZM18.3354 19.6011L17.0698 18.3267C16.9058 18.1567 16.8237 17.9487 16.8237 17.7026C16.8237 17.4565 16.9087 17.2485 17.0786 17.0786C17.2485 16.9087 17.4565 16.8267 17.7026 16.8325C17.9546 16.8384 18.1626 16.9233 18.3267 17.0874L19.5923 18.3618C19.7622 18.5259 19.8442 18.7339 19.8384 18.9858C19.8325 19.2378 19.7446 19.4458 19.5747 19.6099C19.4106 19.7798 19.2026 19.8647 18.9507 19.8647C18.7046 19.8589 18.4995 19.771 18.3354 19.6011Z" fill="black"/>
</svg>
