<svg width="32" height="32" viewBox="0 0 32 32" fill="none" xmlns="http://www.w3.org/2000/svg">
<path d="M15.9956 20.6274C15.3628 20.6274 14.7681 20.5073 14.2114 20.2671C13.6548 20.021 13.1626 19.687 12.7349 19.2651C12.3071 18.8374 11.9731 18.3452 11.7329 17.7886C11.4927 17.2319 11.3726 16.6372 11.3726 16.0044C11.3726 15.3716 11.4927 14.7769 11.7329 14.2202C11.9731 13.6577 12.3071 13.1655 12.7349 12.7437C13.1626 12.3159 13.6548 11.9819 14.2114 11.7417C14.7681 11.4956 15.3628 11.3726 15.9956 11.3726C16.6226 11.3726 17.2144 11.4956 17.771 11.7417C18.3335 11.9819 18.8257 12.3159 19.2476 12.7437C19.6694 13.1655 20.0005 13.6577 20.2407 14.2202C20.4868 14.7769 20.6099 15.3716 20.6099 16.0044C20.6099 16.6372 20.4868 17.2319 20.2407 17.7886C20.0005 18.3452 19.6694 18.8374 19.2476 19.2651C18.8257 19.687 18.3335 20.021 17.771 20.2671C17.2144 20.5073 16.6226 20.6274 15.9956 20.6274ZM15.9956 18.9839C16.5405 18.9839 17.0386 18.8491 17.4897 18.5796C17.9409 18.3101 18.3013 17.9497 18.5708 17.4985C18.8403 17.0474 18.9751 16.5493 18.9751 16.0044C18.9751 15.4595 18.8403 14.9614 18.5708 14.5103C18.3013 14.0591 17.9409 13.6987 17.4897 13.4292C17.0386 13.1538 16.5405 13.0161 15.9956 13.0161C15.4507 13.0161 14.9526 13.1538 14.5015 13.4292C14.0503 13.6987 13.687 14.0591 13.4116 14.5103C13.1421 14.9614 13.0073 15.4595 13.0073 16.0044C13.0073 16.5493 13.1421 17.0474 13.4116 17.4985C13.687 17.9497 14.0503 18.3101 14.5015 18.5796C14.9526 18.8491 15.4507 18.9839 15.9956 18.9839ZM16.8833 7.0835V8.87646C16.8833 9.1167 16.7954 9.32471 16.6196 9.50049C16.4438 9.67041 16.2358 9.75537 15.9956 9.75537C15.7554 9.75537 15.5474 9.67041 15.3716 9.50049C15.2017 9.32471 15.1167 9.1167 15.1167 8.87646V7.0835C15.1167 6.84326 15.2017 6.63525 15.3716 6.45947C15.5474 6.28369 15.7554 6.1958 15.9956 6.1958C16.2358 6.1958 16.4438 6.28369 16.6196 6.45947C16.7954 6.63525 16.8833 6.84326 16.8833 7.0835ZM20.3989 10.3618L21.6821 9.0874C21.8462 8.91748 22.0513 8.83252 22.2974 8.83252C22.5435 8.82666 22.7515 8.90869 22.9214 9.07861C23.0854 9.24854 23.1675 9.45947 23.1675 9.71143C23.1733 9.95752 23.0913 10.1655 22.9214 10.3354L21.6558 11.6011C21.48 11.7769 21.269 11.8647 21.0229 11.8647C20.7769 11.8647 20.5688 11.7798 20.3989 11.6099C20.229 11.4399 20.144 11.2319 20.144 10.9858C20.144 10.7397 20.229 10.5317 20.3989 10.3618ZM24.8901 16.8833H23.1147C22.8745 16.8833 22.6665 16.7983 22.4907 16.6284C22.3149 16.4526 22.2271 16.2446 22.2271 16.0044C22.2271 15.7642 22.3149 15.5591 22.4907 15.3892C22.6665 15.2134 22.8745 15.1255 23.1147 15.1255H24.8901C25.1362 15.1255 25.3472 15.2134 25.5229 15.3892C25.6987 15.5591 25.7866 15.7642 25.7866 16.0044C25.7866 16.2446 25.6987 16.4526 25.5229 16.6284C25.3472 16.7983 25.1362 16.8833 24.8901 16.8833ZM21.647 20.4077L22.9214 21.6733C23.0913 21.8433 23.1763 22.0542 23.1763 22.3062C23.1763 22.5522 23.0942 22.7573 22.9302 22.9214C22.7603 23.0913 22.5522 23.1763 22.3062 23.1763C22.0601 23.1821 21.8521 23.103 21.6821 22.939L20.3989 21.6558C20.229 21.4858 20.144 21.2778 20.144 21.0317C20.144 20.7856 20.229 20.5806 20.3989 20.4165C20.5688 20.2466 20.7769 20.1616 21.0229 20.1616C21.269 20.1558 21.4771 20.2378 21.647 20.4077ZM16.8833 23.1323V24.9165C16.8833 25.1567 16.7954 25.3647 16.6196 25.5405C16.4438 25.7163 16.2358 25.8042 15.9956 25.8042C15.7554 25.8042 15.5474 25.7163 15.3716 25.5405C15.2017 25.3647 15.1167 25.1567 15.1167 24.9165V23.1323C15.1167 22.8862 15.2017 22.6753 15.3716 22.4995C15.5474 22.3296 15.7554 22.2446 15.9956 22.2446C16.2358 22.2446 16.4438 22.3296 16.6196 22.4995C16.7954 22.6753 16.8833 22.8862 16.8833 23.1323ZM9.06982 21.6646L10.3354 20.4077C10.5054 20.2378 10.7134 20.1558 10.9595 20.1616C11.2114 20.1616 11.4224 20.2466 11.5923 20.4165C11.7622 20.5806 11.8442 20.7856 11.8384 21.0317C11.8325 21.2778 11.7446 21.4858 11.5747 21.6558L10.3091 22.9302C10.1392 23.0942 9.92822 23.1733 9.67627 23.1675C9.43018 23.1675 9.22217 23.0825 9.05225 22.9126C8.89404 22.7485 8.81494 22.5435 8.81494 22.2974C8.81494 22.0454 8.8999 21.8345 9.06982 21.6646ZM7.09229 15.1255H8.87646C9.1167 15.1255 9.32471 15.2134 9.50049 15.3892C9.67627 15.5591 9.76416 15.7642 9.76416 16.0044C9.76416 16.2446 9.67627 16.4526 9.50049 16.6284C9.32471 16.7983 9.1167 16.8833 8.87646 16.8833H7.09229C6.85791 16.8833 6.65283 16.7983 6.47705 16.6284C6.30127 16.4526 6.21338 16.2446 6.21338 16.0044C6.21338 15.7642 6.30127 15.5591 6.47705 15.3892C6.65283 15.2134 6.85791 15.1255 7.09229 15.1255ZM10.3354 11.6011L9.06982 10.3267C8.90576 10.1567 8.82373 9.94873 8.82373 9.70264C8.82373 9.45654 8.90869 9.24854 9.07861 9.07861C9.24854 8.90869 9.45654 8.82666 9.70264 8.83252C9.95459 8.83838 10.1626 8.92334 10.3267 9.0874L11.5923 10.3618C11.7622 10.5259 11.8442 10.7339 11.8384 10.9858C11.8325 11.2378 11.7446 11.4458 11.5747 11.6099C11.4106 11.7798 11.2026 11.8647 10.9507 11.8647C10.7046 11.8589 10.4995 11.771 10.3354 11.6011Z" fill="black"/>
</svg>
