<svg width="48" height="48" viewBox="0 0 48 48" fill="none" xmlns="http://www.w3.org/2000/svg">
<path d="M18.3267 29.6723C18.1978 29.5492 18.1128 29.4027 18.0718 29.2328C18.0308 29.057 18.0308 28.8842 18.0718 28.7143C18.1187 28.5443 18.2036 28.4008 18.3267 28.2836L22.6069 23.9945L18.3267 19.7143C18.2036 19.5971 18.1187 19.4535 18.0718 19.2836C18.0308 19.1137 18.0308 18.9438 18.0718 18.7738C18.1128 18.598 18.1978 18.4486 18.3267 18.3256C18.4556 18.1967 18.605 18.1117 18.7749 18.0707C18.9448 18.0297 19.1147 18.0326 19.2847 18.0795C19.4546 18.1205 19.6011 18.1996 19.7241 18.3168L24.0044 22.6059L28.2847 18.3168C28.4077 18.1937 28.5542 18.1117 28.7241 18.0707C28.894 18.0297 29.061 18.0326 29.2251 18.0795C29.395 18.1205 29.5444 18.2025 29.6733 18.3256C29.8022 18.4486 29.8872 18.598 29.9282 18.7738C29.9692 18.9438 29.9692 19.1137 29.9282 19.2836C29.8872 19.4477 29.8022 19.5941 29.6733 19.723L25.4019 23.9945L29.6733 28.2836C29.8022 28.4066 29.8872 28.5531 29.9282 28.723C29.9692 28.8871 29.9692 29.057 29.9282 29.2328C29.8872 29.4027 29.8022 29.5492 29.6733 29.6723C29.5444 29.7953 29.395 29.8803 29.2251 29.9271C29.061 29.9682 28.894 29.9682 28.7241 29.9271C28.5542 29.8861 28.4077 29.8041 28.2847 29.6811L24.0044 25.392L19.7241 29.6811C19.6011 29.8041 19.4546 29.8861 19.2847 29.9271C19.1147 29.9682 18.9448 29.9682 18.7749 29.9271C18.605 29.8861 18.4556 29.8012 18.3267 29.6723Z" fill="black"/>
</svg>
