<svg width="32" height="32" viewBox="0 0 32 32" fill="none" xmlns="http://www.w3.org/2000/svg">
<path d="M10.3267 21.6723C10.1978 21.5492 10.1128 21.4027 10.0718 21.2328C10.0308 21.057 10.0308 20.8842 10.0718 20.7143C10.1187 20.5443 10.2036 20.4008 10.3267 20.2836L14.6069 15.9945L10.3267 11.7143C10.2036 11.5971 10.1187 11.4535 10.0718 11.2836C10.0308 11.1137 10.0308 10.9438 10.0718 10.7738C10.1128 10.598 10.1978 10.4486 10.3267 10.3256C10.4556 10.1967 10.605 10.1117 10.7749 10.0707C10.9448 10.0297 11.1147 10.0326 11.2847 10.0795C11.4546 10.1205 11.6011 10.1996 11.7241 10.3168L16.0044 14.6059L20.2847 10.3168C20.4077 10.1937 20.5542 10.1117 20.7241 10.0707C20.894 10.0297 21.061 10.0326 21.2251 10.0795C21.395 10.1205 21.5444 10.2025 21.6733 10.3256C21.8022 10.4486 21.8872 10.598 21.9282 10.7738C21.9692 10.9438 21.9692 11.1137 21.9282 11.2836C21.8872 11.4477 21.8022 11.5941 21.6733 11.723L17.4019 15.9945L21.6733 20.2836C21.8022 20.4066 21.8872 20.5531 21.9282 20.723C21.9692 20.8871 21.9692 21.057 21.9282 21.2328C21.8872 21.4027 21.8022 21.5492 21.6733 21.6723C21.5444 21.7953 21.395 21.8803 21.2251 21.9271C21.061 21.9682 20.894 21.9682 20.7241 21.9271C20.5542 21.8861 20.4077 21.8041 20.2847 21.6811L16.0044 17.392L11.7241 21.6811C11.6011 21.8041 11.4546 21.8861 11.2847 21.9271C11.1147 21.9682 10.9448 21.9682 10.7749 21.9271C10.605 21.8861 10.4556 21.8012 10.3267 21.6723Z" fill="black"/>
</svg>
