<svg width="32" height="32" viewBox="0 0 32 32" fill="none" xmlns="http://www.w3.org/2000/svg">
<path d="M24.4155 18.5444C24.4155 19.7222 24.1694 20.7476 23.6772 21.6206C23.1851 22.4937 22.4731 23.1704 21.5415 23.6509C20.6157 24.1313 19.4966 24.3716 18.1841 24.3716H16.0747C15.7876 24.3716 15.5532 24.2778 15.3716 24.0903C15.1899 23.9028 15.0991 23.6743 15.0991 23.4048C15.0991 23.1411 15.1899 22.9155 15.3716 22.728C15.5532 22.5405 15.7876 22.4468 16.0747 22.4468H18.1226C19.0659 22.4468 19.8628 22.2739 20.5132 21.9282C21.1694 21.5825 21.6646 21.1108 21.9985 20.5132C22.3384 19.9155 22.5083 19.2358 22.5083 18.4741C22.5083 17.7124 22.3384 17.0386 21.9985 16.4526C21.6646 15.8667 21.1694 15.4097 20.5132 15.0815C19.8628 14.7476 19.0659 14.5806 18.1226 14.5806H12.5327L9.5708 14.4487L9.84326 13.9478L12.0405 15.8022L14.2993 17.9995C14.3813 18.0815 14.4487 18.1782 14.5015 18.2896C14.5542 18.4009 14.5806 18.5269 14.5806 18.6675C14.5806 18.937 14.4927 19.1597 14.3169 19.3354C14.147 19.5112 13.9185 19.5991 13.6313 19.5991C13.3677 19.5991 13.1392 19.4995 12.9458 19.3003L7.89209 14.3345C7.79248 14.2349 7.71631 14.1235 7.66357 14.0005C7.61084 13.8774 7.58447 13.7515 7.58447 13.6226C7.58447 13.4878 7.61084 13.3589 7.66357 13.2358C7.71631 13.1069 7.79248 12.9956 7.89209 12.9019L12.9458 7.93604C13.1392 7.73096 13.3677 7.62842 13.6313 7.62842C13.9185 7.62842 14.147 7.71631 14.3169 7.89209C14.4927 8.06787 14.5806 8.29346 14.5806 8.56885C14.5806 8.70947 14.5542 8.83545 14.5015 8.94678C14.4487 9.05225 14.3813 9.14893 14.2993 9.23682L12.0405 11.4429L9.84326 13.2974L9.5708 12.7876L12.5327 12.647H18.0698C19.3999 12.647 20.5396 12.8989 21.4888 13.4028C22.438 13.9009 23.1616 14.5923 23.6597 15.4771C24.1636 16.3618 24.4155 17.3843 24.4155 18.5444Z" fill="black"/>
</svg>
