<svg width="48" height="48" viewBox="0 0 48 48" fill="none" xmlns="http://www.w3.org/2000/svg">
<path d="M32.4155 26.5444C32.4155 27.7222 32.1694 28.7476 31.6772 29.6206C31.1851 30.4937 30.4731 31.1704 29.5415 31.6509C28.6157 32.1313 27.4966 32.3716 26.1841 32.3716H24.0747C23.7876 32.3716 23.5532 32.2778 23.3716 32.0903C23.1899 31.9028 23.0991 31.6743 23.0991 31.4048C23.0991 31.1411 23.1899 30.9155 23.3716 30.728C23.5532 30.5405 23.7876 30.4468 24.0747 30.4468H26.1226C27.0659 30.4468 27.8628 30.2739 28.5132 29.9282C29.1694 29.5825 29.6646 29.1108 29.9985 28.5132C30.3384 27.9155 30.5083 27.2358 30.5083 26.4741C30.5083 25.7124 30.3384 25.0386 29.9985 24.4526C29.6646 23.8667 29.1694 23.4097 28.5132 23.0815C27.8628 22.7476 27.0659 22.5806 26.1226 22.5806H20.5327L17.5708 22.4487L17.8433 21.9478L20.0405 23.8022L22.2993 25.9995C22.3813 26.0815 22.4487 26.1782 22.5015 26.2896C22.5542 26.4009 22.5806 26.5269 22.5806 26.6675C22.5806 26.937 22.4927 27.1597 22.3169 27.3354C22.147 27.5112 21.9185 27.5991 21.6313 27.5991C21.3677 27.5991 21.1392 27.4995 20.9458 27.3003L15.8921 22.3345C15.7925 22.2349 15.7163 22.1235 15.6636 22.0005C15.6108 21.8774 15.5845 21.7515 15.5845 21.6226C15.5845 21.4878 15.6108 21.3589 15.6636 21.2358C15.7163 21.1069 15.7925 20.9956 15.8921 20.9019L20.9458 15.936C21.1392 15.731 21.3677 15.6284 21.6313 15.6284C21.9185 15.6284 22.147 15.7163 22.3169 15.8921C22.4927 16.0679 22.5806 16.2935 22.5806 16.5688C22.5806 16.7095 22.5542 16.8354 22.5015 16.9468C22.4487 17.0522 22.3813 17.1489 22.2993 17.2368L20.0405 19.4429L17.8433 21.2974L17.5708 20.7876L20.5327 20.647H26.0698C27.3999 20.647 28.5396 20.8989 29.4888 21.4028C30.438 21.9009 31.1616 22.5923 31.6597 23.4771C32.1636 24.3618 32.4155 25.3843 32.4155 26.5444Z" fill="black"/>
</svg>
