<svg width="1239" height="1491" viewBox="0 0 1239 1491" fill="none" xmlns="http://www.w3.org/2000/svg">
<g clip-path="url(#clip0_260_9741)">
<path d="M0 296C0 192.39 0 140.585 20.1638 101.012C37.9004 66.2018 66.2018 37.9004 101.012 20.1638C140.585 0 192.39 0 296 0H943C1046.61 0 1098.41 0 1137.99 20.1638C1172.8 37.9004 1201.1 66.2018 1218.84 101.012C1239 140.585 1239 192.39 1239 296V1491H0V296Z" fill="#EDEDEF"/>
<path d="M30 294C30 201.591 30 155.387 47.9839 120.092C63.803 89.0448 89.0448 63.803 120.092 47.9839C155.387 30 201.591 30 294 30H945C1037.41 30 1083.61 30 1118.91 47.9839C1149.96 63.803 1175.2 89.0448 1191.02 120.092C1209 155.387 1209 201.591 1209 294V1491H30V294Z" fill="white"/>
<rect x="435.602" y="65" width="367" height="108" rx="54" fill="#EDEDEF"/>
<rect x="123" y="269" width="180" height="180" rx="39" fill="#EDEDEF"/>
<rect x="393.5" y="269" width="180" height="180" rx="39" fill="#EDEDEF"/>
<rect x="664" y="269" width="180" height="180" rx="39" fill="#EDEDEF"/>
<rect x="934.5" y="269" width="180" height="180" rx="39" fill="#EDEDEF"/>
<rect x="123" y="562.863" width="180" height="180" rx="39" fill="#EDEDEF"/>
<rect x="393.5" y="562.863" width="180" height="180" rx="39" fill="#EDEDEF"/>
<rect x="664" y="562.863" width="180" height="180" rx="39" fill="#EDEDEF"/>
<rect x="934.5" y="562.863" width="180" height="180" rx="39" fill="#EDEDEF"/>
<rect x="123" y="856.728" width="180" height="180" rx="39" fill="#EDEDEF"/>
<rect x="393.5" y="856.728" width="180" height="180" rx="39" fill="#EDEDEF"/>
<rect x="664" y="856.728" width="180" height="180" rx="39" fill="#EDEDEF"/>
<rect x="934.5" y="856.728" width="180" height="180" rx="39" fill="#EDEDEF"/>
<rect x="123" y="1150.59" width="180" height="180" rx="39" fill="#EDEDEF"/>
<rect x="393.5" y="1150.59" width="180" height="180" rx="39" fill="#EDEDEF"/>
<rect x="664" y="1150.59" width="180" height="180" rx="39" fill="#EDEDEF"/>
<rect x="934.5" y="1150.59" width="180" height="180" rx="39" fill="#EDEDEF"/>
<g clip-path="url(#clip1_260_9741)">
<rect x="646" y="839" width="216" height="216" rx="46.8" fill="#F3F3F2"/>
<rect width="216" height="216" transform="translate(646 839)" fill="#006D67"/>
<path d="M695.628 929.729C694.2 929.729 692.87 929.36 691.639 928.621C690.409 927.833 689.399 926.824 688.611 925.593C687.824 924.362 687.43 922.984 687.43 921.457C687.43 919.98 687.824 918.602 688.611 917.321C689.399 916.041 690.409 915.032 691.639 914.293C692.87 913.555 694.2 913.186 695.628 913.186H784.697C786.174 913.186 787.528 913.555 788.759 914.293C789.99 915.032 790.974 916.041 791.713 917.321C792.501 918.602 792.895 919.98 792.895 921.457C792.895 922.984 792.501 924.362 791.713 925.593C790.974 926.824 789.99 927.833 788.759 928.621C787.528 929.36 786.174 929.729 784.697 929.729H695.628ZM695.628 978.104C694.2 978.104 692.87 977.735 691.639 976.996C690.409 976.258 689.399 975.248 688.611 973.968C687.824 972.688 687.43 971.309 687.43 969.832C687.43 968.306 687.824 966.927 688.611 965.696C689.399 964.466 690.409 963.456 691.639 962.668C692.87 961.881 694.2 961.487 695.628 961.487H784.697C786.174 961.487 787.528 961.881 788.759 962.668C789.99 963.456 790.974 964.466 791.713 965.696C792.501 966.927 792.895 968.306 792.895 969.832C792.895 971.309 792.501 972.688 791.713 973.968C790.974 975.248 789.99 976.258 788.759 976.996C787.528 977.735 786.174 978.104 784.697 978.104H695.628Z" fill="#F8F8F6"/>
<circle cx="812.172" cy="921.471" r="9" fill="#F8F8F6"/>
<circle cx="812.172" cy="969.739" r="9" fill="#F8F8F6"/>
</g>
</g>
<defs>
<clipPath id="clip0_260_9741">
<rect width="1239" height="1491" fill="white"/>
</clipPath>
<clipPath id="clip1_260_9741">
<rect x="646" y="839" width="216" height="216" rx="46.8" fill="white"/>
</clipPath>
</defs>
</svg>
