<svg width="24" height="24" viewBox="0 0 24 24" fill="none" xmlns="http://www.w3.org/2000/svg">
<path d="M19.1323 5.41602C19.5776 5.86719 19.8647 6.40332 19.9937 7.02441C20.1284 7.64551 20.1958 8.35742 20.1958 9.16016V15.8486C20.1958 16.6455 20.1284 17.3574 19.9937 17.9844C19.8647 18.6055 19.5776 19.1416 19.1323 19.5928C18.6753 20.0439 18.1333 20.334 17.5063 20.4629C16.8794 20.5977 16.1675 20.665 15.3706 20.665H8.62939C7.82666 20.665 7.11182 20.5977 6.48486 20.4629C5.86377 20.334 5.32764 20.0439 4.87646 19.5928C4.41943 19.1416 4.12646 18.6055 3.99756 17.9844C3.86865 17.3574 3.8042 16.6455 3.8042 15.8486V9.14258C3.8042 8.35156 3.86865 7.64551 3.99756 7.02441C4.13232 6.40332 4.42529 5.86719 4.87646 5.41602C5.32764 4.96484 5.86377 4.67188 6.48486 4.53711C7.11182 4.40234 7.8208 4.33496 8.61182 4.33496H15.3706C16.1675 4.33496 16.8794 4.40234 17.5063 4.53711C18.1333 4.67188 18.6753 4.96484 19.1323 5.41602ZM18.4731 8.91406C18.4731 8.45703 18.4321 8.03223 18.3501 7.63965C18.2739 7.24707 18.1099 6.92773 17.8579 6.68164C17.6177 6.43555 17.2954 6.27148 16.8911 6.18945C16.4927 6.10742 16.0679 6.06641 15.6167 6.06641H8.40967C7.94678 6.06641 7.51318 6.10742 7.10889 6.18945C6.70459 6.26562 6.37939 6.42969 6.1333 6.68164C5.89307 6.92188 5.73193 7.24121 5.6499 7.63965C5.57373 8.03809 5.53564 8.47168 5.53564 8.94043V16.0859C5.53564 16.543 5.57373 16.9707 5.6499 17.3691C5.73193 17.7617 5.89307 18.0811 6.1333 18.3271C6.37939 18.5732 6.70166 18.7373 7.1001 18.8193C7.50439 18.9014 7.93506 18.9424 8.39209 18.9424H15.6167C16.0679 18.9424 16.4927 18.9014 16.8911 18.8193C17.2954 18.7373 17.6177 18.5732 17.8579 18.3271C18.104 18.0811 18.2681 17.7617 18.3501 17.3691C18.4321 16.9707 18.4731 16.543 18.4731 16.0859V8.91406ZM7.94385 12.4912C7.94385 12.2451 8.02002 12.0459 8.17236 11.8936C8.32471 11.7354 8.52686 11.6562 8.77881 11.6562H11.187V9.24805C11.187 9.00781 11.2632 8.81152 11.4155 8.65918C11.5679 8.50098 11.7612 8.42188 11.9956 8.42188C12.2417 8.42188 12.4409 8.49805 12.5933 8.65039C12.7515 8.80273 12.8306 9.00195 12.8306 9.24805V11.6562H15.2388C15.4849 11.6562 15.6841 11.7354 15.8364 11.8936C15.9888 12.0459 16.0649 12.2451 16.0649 12.4912C16.0649 12.7256 15.9888 12.9189 15.8364 13.0713C15.6841 13.2236 15.4849 13.2998 15.2388 13.2998H12.8306V15.7168C12.8306 15.957 12.7515 16.1562 12.5933 16.3145C12.4409 16.4668 12.2417 16.543 11.9956 16.543C11.7612 16.543 11.5679 16.4668 11.4155 16.3145C11.2632 16.1562 11.187 15.957 11.187 15.7168V13.2998H8.77881C8.53271 13.2998 8.33057 13.2236 8.17236 13.0713C8.02002 12.9189 7.94385 12.7256 7.94385 12.4912Z" fill="#007AFF"/>
</svg>
