<svg width="24" height="24" viewBox="0 0 24 24" fill="none" xmlns="http://www.w3.org/2000/svg">
<path d="M6.9375 22.5547C5.98828 22.5547 5.27051 22.3145 4.78418 21.834C4.29785 21.3535 4.05469 20.6416 4.05469 19.6982V11.0498C4.05469 10.1123 4.29785 9.40332 4.78418 8.92285C5.27051 8.43652 5.98828 8.19336 6.9375 8.19336H9.33691V9.9248H7.04297C6.63281 9.9248 6.31934 10.0332 6.10254 10.25C5.8916 10.4609 5.78613 10.7803 5.78613 11.208V19.5488C5.78613 19.9766 5.8916 20.2959 6.10254 20.5068C6.31934 20.7236 6.63281 20.832 7.04297 20.832H16.9482C17.3525 20.832 17.6631 20.7236 17.8799 20.5068C18.1025 20.2959 18.2139 19.9766 18.2139 19.5488V11.208C18.2139 10.7803 18.1025 10.4609 17.8799 10.25C17.6631 10.0332 17.3525 9.9248 16.9482 9.9248H14.6719V8.19336H17.0625C18.0117 8.19336 18.7295 8.43652 19.2158 8.92285C19.7021 9.40332 19.9453 10.1123 19.9453 11.0498V19.6982C19.9453 20.6357 19.7021 21.3447 19.2158 21.8252C18.7295 22.3115 18.0117 22.5547 17.0625 22.5547H6.9375ZM12 15.5498C11.7773 15.5498 11.584 15.4707 11.4199 15.3125C11.2617 15.1543 11.1826 14.9668 11.1826 14.75V5.89941L11.2529 4.58984L10.6992 5.23145L9.46875 6.5498C9.32812 6.70801 9.14648 6.78711 8.92383 6.78711C8.71875 6.78711 8.5459 6.72266 8.40527 6.59375C8.27051 6.45898 8.20312 6.28906 8.20312 6.08398C8.20312 5.89648 8.27637 5.72363 8.42285 5.56543L11.376 2.72656C11.4873 2.62109 11.5928 2.54785 11.6924 2.50684C11.792 2.46582 11.8945 2.44531 12 2.44531C12.1055 2.44531 12.208 2.46582 12.3076 2.50684C12.4072 2.54785 12.5098 2.62109 12.6152 2.72656L15.5684 5.56543C15.7207 5.72363 15.7969 5.89648 15.7969 6.08398C15.7969 6.28906 15.7236 6.45898 15.5771 6.59375C15.4365 6.72266 15.2666 6.78711 15.0674 6.78711C14.8506 6.78711 14.6689 6.70801 14.5225 6.5498L13.292 5.23145L12.7471 4.58984L12.8174 5.89941V14.75C12.8174 14.9668 12.7354 15.1543 12.5713 15.3125C12.4131 15.4707 12.2227 15.5498 12 15.5498Z" fill="#007AFF"/>
</svg>
