<svg width="24" height="24" viewBox="0 0 24 24" fill="none" xmlns="http://www.w3.org/2000/svg">
<path d="M5.10607 19.3894C4.93615 19.2195 4.82189 19.0203 4.7633 18.7917C4.71056 18.5574 4.71349 18.3289 4.77209 18.1062C4.83068 17.8777 4.93908 17.6843 5.09728 17.5261L10.1158 12.4988L5.09728 7.48022C4.93908 7.32202 4.83068 7.12866 4.77209 6.90015C4.71935 6.67163 4.71935 6.44312 4.77209 6.2146C4.83068 5.98608 4.94201 5.78687 5.10607 5.61694C5.27599 5.44116 5.47521 5.3269 5.70373 5.27417C5.9381 5.22144 6.16955 5.22144 6.39806 5.27417C6.62658 5.3269 6.82287 5.4353 6.98693 5.59937L12.0055 10.6091L17.0153 5.59937C17.1793 5.4353 17.3756 5.3269 17.6041 5.27417C17.8326 5.21558 18.0582 5.21558 18.2809 5.27417C18.5094 5.33276 18.7115 5.44702 18.8873 5.61694C19.0572 5.78687 19.1715 5.98608 19.2301 6.2146C19.2887 6.44312 19.2887 6.67163 19.2301 6.90015C19.1774 7.1228 19.069 7.31909 18.9049 7.48901L13.8951 12.4988L18.9049 17.5173C19.069 17.6814 19.1774 17.8777 19.2301 18.1062C19.2828 18.3347 19.2799 18.5632 19.2213 18.7917C19.1686 19.0203 19.0572 19.2195 18.8873 19.3894C18.7174 19.5593 18.5182 19.6707 18.2897 19.7234C18.0612 19.782 17.8326 19.7849 17.6041 19.7322C17.3756 19.6794 17.1793 19.5681 17.0153 19.3982L12.0055 14.3884L6.98693 19.407C6.82287 19.5652 6.62658 19.6707 6.39806 19.7234C6.17541 19.782 5.94689 19.782 5.71252 19.7234C5.484 19.6707 5.28185 19.5593 5.10607 19.3894Z" fill="black"/>
</svg>
